<svg xmlns="http://www.w3.org/2000/svg" width="294.84796142578125" height="210.9744415283203" viewBox="-11.018264770507812 -21.961528778076172 294.84796142578125 210.9744415283203"><title>Neo4j Graph Visualization</title><desc>Created using Neo4j (http://www.neo4j.com/)</desc><g class="layer relationships"><g class="relationship" transform="translate(254.8296870908545 14.063602908441108) rotate(512.4830215923508)"><path class="outline" fill="#A5ABB6" stroke="none" d="M 25 0.5 L 47.36620565029436 0.5 L 47.36620565029436 -0.5 L 25 -0.5 Z M 96.48729940029436 0.5 L 118.85350505058872 0.5 L 118.85350505058872 3.5 L 125.85350505058872 0 L 118.85350505058872 -3.5 L 118.85350505058872 -0.5 L 96.48729940029436 -0.5 Z"/><text text-anchor="middle" pointer-events="none" font-size="8px" fill="#000000" x="71.92675252529436" y="3" transform="rotate(180 71.92675252529436 0)" font-family="sans-serif">PRESENTS</text></g><g class="relationship" transform="translate(121.04164098112965 83.75964801998337) rotate(216.66520669910767)"><path class="outline" fill="#A5ABB6" stroke="none" d="M 25 0.5 L 39.07275643137213 0.5 L 39.07275643137213 -0.5 L 25 -0.5 Z M 82.40869393137213 0.5 L 96.48145036274425 0.5 L 96.48145036274425 3.5 L 103.48145036274425 0 L 96.48145036274425 -3.5 L 96.48145036274425 -0.5 L 82.40869393137213 -0.5 Z"/><text text-anchor="middle" pointer-events="none" font-size="8px" fill="#000000" x="60.74072518137213" y="3" transform="rotate(180 60.74072518137213 0)" font-family="sans-serif">IN_ROOM</text></g><g class="relationship" transform="translate(121.04164098112965 83.75964801998337) rotate(388.5102746293507)"><path class="outline" fill="#A5ABB6" stroke="none" d="M 25 0.5 L 51.686772699351934 0.5 L 51.686772699351934 -0.5 L 25 -0.5 Z M 89.99146019935193 0.5 L 116.67823289870387 0.5 L 116.67823289870387 3.5 L 123.67823289870387 0 L 116.67823289870387 -3.5 L 116.67823289870387 -0.5 L 89.99146019935193 -0.5 Z"/><text text-anchor="middle" pointer-events="none" font-size="8px" fill="#000000" x="70.83911644935193" y="3" font-family="sans-serif">ON_DAY</text></g><g class="relationship" transform="translate(121.04164098112965 83.75964801998337) rotate(502.8562001623302)"><path class="outline" fill="#A5ABB6" stroke="none" d="M 25 0.5 L 36.8613878013255 0.5 L 36.8613878013255 -0.5 L 25 -0.5 Z M 82.42388780132549 0.5 L 94.285275602651 0.5 L 94.285275602651 3.5 L 101.285275602651 0 L 94.285275602651 -3.5 L 94.285275602651 -0.5 L 82.42388780132549 -0.5 Z"/><text text-anchor="middle" pointer-events="none" font-size="8px" fill="#000000" x="59.6426378013255" y="3" transform="rotate(180 59.6426378013255 0)" font-family="sans-serif">IN_TRACK</text></g></g><g class="layer nodes"><g class="node" transform="translate(251.689892277947,154.72619909135)"><circle class="outline" cx="0" cy="0" r="25" fill="#57C7E3" stroke="#23b3d7" stroke-width="2px"/><text text-anchor="middle" pointer-events="none" font-family="sans-serif" dy="1.5625" font-size="25" fill="#FFFFFF"/><text text-anchor="middle" pointer-events="none" y="5" font-size="10px" fill="#FFFFFF" font-family="sans-serif"> Day</text></g><g class="node" transform="translate(121.04164098112965,83.75964801998337)"><circle class="outline" cx="0" cy="0" r="25" fill="#D9C8AE" stroke="#c0a378" stroke-width="2px"/><text text-anchor="middle" pointer-events="none" font-family="sans-serif" dy="1.5625" font-size="25" fill="#604A0E"/><text text-anchor="middle" pointer-events="none" y="5" font-size="10px" fill="#604A0E" font-family="sans-serif"> Event</text></g><g class="node" transform="translate(254.8296870908545,14.063602908441108)"><circle class="outline" cx="0" cy="0" r="25" fill="#4C8EDA" stroke="#2870c2" stroke-width="2px"/><text text-anchor="middle" pointer-events="none" font-family="sans-serif" dy="1.5625" font-size="25" fill="#FFFFFF"/><text text-anchor="middle" pointer-events="none" y="5" font-size="10px" fill="#FFFFFF" font-family="sans-serif"> Person</text></g><g class="node" transform="translate(17.98173482214556,7.038472130821553)"><circle class="outline" cx="0" cy="0" r="25" fill="#8DCC93" stroke="#5db665" stroke-width="2px"/><text text-anchor="middle" pointer-events="none" font-family="sans-serif" dy="1.5625" font-size="25" fill="#604A0E"/><text text-anchor="middle" pointer-events="none" y="5" font-size="10px" fill="#604A0E" font-family="sans-serif"> Room</text></g><g class="node" transform="translate(20.376797205740424,160.01291064994564)"><circle class="outline" cx="0" cy="0" r="25" fill="#ECB5C9" stroke="#da7298" stroke-width="2px"/><text text-anchor="middle" pointer-events="none" font-family="sans-serif" dy="1.5625" font-size="25" fill="#604A0E"/><text text-anchor="middle" pointer-events="none" y="5" font-size="10px" fill="#604A0E" font-family="sans-serif"> Track</text></g></g></svg>