<svg xmlns="http://www.w3.org/2000/svg" width="1217.1025390625" height="725.421875" viewBox="-483.6624450683594 -313.4944763183594 1217.1025390625 725.421875"><title>Neo4j Graph Visualization</title><desc>Created using Neo4j (http://www.neo4j.com/)</desc><g class="layer relationships"><g class="relationship" transform="translate(-17.635987306345022 269.32492277331653) rotate(316.73157441365925)"><path class="outline" fill="#A5ABB6" stroke="none" d="M 25 0.5 L 27.134383913118576 0.5 L 27.134383913118576 -0.5 L 25 -0.5 Z M 46.470321413118576 0.5 L 48.60470532623715 0.5 L 48.60470532623715 3.5 L 55.60470532623715 0 L 48.60470532623715 -3.5 L 48.60470532623715 -0.5 L 46.470321413118576 -0.5 Z"/><text text-anchor="middle" pointer-events="none" font-size="8px" fill="#000000" x="36.802352663118576" y="3" font-family="sans-serif">A…</text></g><g class="relationship" transform="translate(113.48432682750992 263.59140949252935) rotate(214.35790799218847)"><path class="outline" fill="#A5ABB6" stroke="none" d="M 25 0.5 L 25.36372886585805 0.5 L 25.36372886585805 -0.5 L 25 -0.5 Z M 55.37154136585805 0.5 L 55.7352702317161 0.5 L 55.7352702317161 3.5 L 62.7352702317161 0 L 55.7352702317161 -3.5 L 55.7352702317161 -0.5 L 55.37154136585805 -0.5 Z"/><text text-anchor="middle" pointer-events="none" font-size="8px" fill="#000000" x="40.36763511585805" y="3" transform="rotate(180 40.36763511585805 0)" font-family="sans-serif">APP…</text></g><g class="relationship" transform="translate(-120.99776677589463 -258.91401822291647) rotate(448.74959658213834)"><path class="outline" fill="#A5ABB6" stroke="none" d="M 25 0.5 L 30.99208877810053 0.5 L 30.99208877810053 -0.5 L 25 -0.5 Z M 85.75771377810054 0.5 L 91.74980255620106 0.5 L 91.74980255620106 3.5 L 98.74980255620106 0 L 91.74980255620106 -3.5 L 91.74980255620106 -0.5 L 85.75771377810054 -0.5 Z"/><text text-anchor="middle" pointer-events="none" font-size="8px" fill="#000000" x="58.37490127810053" y="3" font-family="sans-serif">APPLIES_TO</text></g><g class="relationship" transform="translate(-201.18963023403495 -226.2182910811503) rotate(407.6771773440271)"><path class="outline" fill="#A5ABB6" stroke="none" d="M 25 0.5 L 30.67329245367707 0.5 L 30.67329245367707 -0.5 L 25 -0.5 Z M 85.43891745367708 0.5 L 91.11220990735414 0.5 L 91.11220990735414 3.5 L 98.11220990735414 0 L 91.11220990735414 -3.5 L 91.11220990735414 -0.5 L 85.43891745367708 -0.5 Z"/><text text-anchor="middle" pointer-events="none" font-size="8px" fill="#000000" x="58.05610495367707" y="3" font-family="sans-serif">APPLIES_TO</text></g><g class="relationship" transform="translate(-305.32335041078954 -96.01435536177735) rotate(348.1684326075415)"><path class="outline" fill="#A5ABB6" stroke="none" d="M 25 0.5 L 64.66005789625996 0.5 L 64.66005789625996 -0.5 L 25 -0.5 Z M 119.42568289625996 0.5 L 159.0857407925199 0.5 L 159.0857407925199 3.5 L 166.0857407925199 0 L 159.0857407925199 -3.5 L 159.0857407925199 -0.5 L 119.42568289625996 -0.5 Z"/><text text-anchor="middle" pointer-events="none" font-size="8px" fill="#000000" x="92.04287039625996" y="3" font-family="sans-serif">APPLIES_TO</text></g><g class="relationship" transform="translate(-190.43068585315822 -54.59132291184568) rotate(311.8262791332263)"><path class="outline" fill="#A5ABB6" stroke="none" d="M 25 0.5 L 26.907406491903046 0.5 L 26.907406491903046 -0.5 L 25 -0.5 Z M 74.25896899190305 0.5 L 76.16637548380609 0.5 L 76.16637548380609 3.5 L 83.16637548380609 0 L 76.16637548380609 -3.5 L 76.16637548380609 -0.5 L 74.25896899190305 -0.5 Z"/><text text-anchor="middle" pointer-events="none" font-size="8px" fill="#000000" x="50.583187741903046" y="3" font-family="sans-serif">APPLIES…</text></g><g class="relationship" transform="translate(453.544233680277 21.827284298189582) rotate(418.0359394869934)"><path class="outline" fill="#A5ABB6" stroke="none" d="M 25 0.5 L 109.56261090637983 0.5 L 109.56261090637983 -0.5 L 25 -0.5 Z M 164.32823590637983 0.5 L 248.89084681275966 0.5 L 248.89084681275966 3.5 L 255.89084681275966 0 L 248.89084681275966 -3.5 L 248.89084681275966 -0.5 L 164.32823590637983 -0.5 Z"/><text text-anchor="middle" pointer-events="none" font-size="8px" fill="#000000" x="136.94542340637983" y="3" font-family="sans-serif">APPLIES_TO</text></g><g class="relationship" transform="translate(539.4995987297419 379.76546314731553) rotate(297.6753659510157)"><path class="outline" fill="#A5ABB6" stroke="none" d="M 25 0.5 L 36.66280725221918 0.5 L 36.66280725221918 -0.5 L 25 -0.5 Z M 91.42843225221918 0.5 L 103.09123950443836 0.5 L 103.09123950443836 3.5 L 110.09123950443836 0 L 103.09123950443836 -3.5 L 103.09123950443836 -0.5 L 91.42843225221918 -0.5 Z"/><text text-anchor="middle" pointer-events="none" font-size="8px" fill="#000000" x="64.04561975221918" y="3" font-family="sans-serif">APPLIES_TO</text></g><g class="relationship" transform="translate(704.4401041646961 300.0442420914487) rotate(201.334152699613)"><path class="outline" fill="#A5ABB6" stroke="none" d="M 25 0.5 L 25.45663681242818 0.5 L 25.45663681242818 -0.5 L 25 -0.5 Z M 77.25741806242817 0.5 L 77.71405487485636 0.5 L 77.71405487485636 3.5 L 84.71405487485636 0 L 77.71405487485636 -3.5 L 77.71405487485636 -0.5 L 77.25741806242817 -0.5 Z"/><text text-anchor="middle" pointer-events="none" font-size="8px" fill="#000000" x="51.35702743742818" y="3" transform="rotate(180 51.35702743742818 0)" font-family="sans-serif">APPLIES_…</text></g><g class="relationship" transform="translate(616.9903347685304 382.9274423135147) rotate(263.1524741731711)"><path class="outline" fill="#A5ABB6" stroke="none" d="M 25 0.5 L 30.95724020268276 0.5 L 30.95724020268276 -0.5 L 25 -0.5 Z M 85.72286520268275 0.5 L 91.68010540536552 0.5 L 91.68010540536552 3.5 L 98.68010540536552 0 L 91.68010540536552 -3.5 L 91.68010540536552 -0.5 L 85.72286520268275 -0.5 Z"/><text text-anchor="middle" pointer-events="none" font-size="8px" fill="#000000" x="58.34005270268276" y="3" transform="rotate(180 58.34005270268276 0)" font-family="sans-serif">APPLIES_TO</text></g><g class="relationship" transform="translate(523.3595078199463 -99.50321078026741) rotate(523.1846732532356)"><path class="outline" fill="#A5ABB6" stroke="none" d="M 25 0.5 L 89.60136301009408 0.5 L 89.60136301009408 -0.5 L 25 -0.5 Z M 138.28495676009408 0.5 L 202.88631977018815 0.5 L 202.88631977018815 3.5 L 209.88631977018815 0 L 202.88631977018815 -3.5 L 202.88631977018815 -0.5 L 138.28495676009408 -0.5 Z"/><text text-anchor="middle" pointer-events="none" font-size="8px" fill="#000000" x="113.94315988509408" y="3" transform="rotate(180 113.94315988509408 0)" font-family="sans-serif">HAS_ROLE</text></g><g class="relationship" transform="translate(-383.98493013879596 -8.230719465446747) rotate(376.8882596305434)"><path class="outline" fill="#A5ABB6" stroke="none" d="M 25 0.5 L 76.51679245024188 0.5 L 76.51679245024188 -0.5 L 25 -0.5 Z M 125.20038620024188 0.5 L 176.71717865048376 0.5 L 176.71717865048376 3.5 L 183.71717865048376 0 L 176.71717865048376 -3.5 L 176.71717865048376 -0.5 L 125.20038620024188 -0.5 Z"/><text text-anchor="middle" pointer-events="none" font-size="8px" fill="#000000" x="100.85858932524188" y="3" font-family="sans-serif">HAS_ROLE</text></g><g class="relationship" transform="translate(209.10057544448995 306.0659632319405) rotate(533.5952485463392)"><path class="outline" fill="#A5ABB6" stroke="none" d="M 25 0.5 L 118.18545627386084 0.5 L 118.18545627386084 -0.5 L 25 -0.5 Z M 141.07217502386084 0.5 L 234.25763129772167 0.5 L 234.25763129772167 3.5 L 241.25763129772167 0 L 234.25763129772167 -3.5 L 234.25763129772167 -0.5 L 141.07217502386084 -0.5 Z"/><text text-anchor="middle" pointer-events="none" font-size="8px" fill="#000000" x="129.62881564886084" y="3" transform="rotate(180 129.62881564886084 0)" font-family="sans-serif">FOR</text></g><g class="relationship" transform="translate(163.8061898668475 182.78974503738303) rotate(370.0039729720993)"><path class="outline" fill="#A5ABB6" stroke="none" d="M 25 0.5 L 191.72074964726863 0.5 L 191.72074964726863 -0.5 L 25 -0.5 Z M 246.48637464726863 0.5 L 413.20712429453727 0.5 L 413.20712429453727 3.5 L 420.20712429453727 0 L 413.20712429453727 -3.5 L 413.20712429453727 -0.5 L 246.48637464726863 -0.5 Z"/><text text-anchor="middle" pointer-events="none" font-size="8px" fill="#000000" x="219.10356214726863" y="3" font-family="sans-serif">APPLIES_TO</text></g><g class="relationship" transform="translate(163.8061898668475 182.78974503738303) rotate(429.82556104869525)"><path class="outline" fill="#A5ABB6" stroke="none" d="M 25 0.5 L 45.16307049099265 0.5 L 45.16307049099265 -0.5 L 25 -0.5 Z M 79.17088299099265 0.5 L 99.3339534819853 0.5 L 99.3339534819853 3.5 L 106.3339534819853 0 L 99.3339534819853 -3.5 L 99.3339534819853 -0.5 L 79.17088299099265 -0.5 Z"/><text text-anchor="middle" pointer-events="none" font-size="8px" fill="#000000" x="62.16697674099265" y="3" font-family="sans-serif">SCOPE</text></g><g class="relationship" transform="translate(-184.26906986722884 52.40290008514441) rotate(380.53563983861176)"><path class="outline" fill="#A5ABB6" stroke="none" d="M 25 0.5 L 159.7908208693286 0.5 L 159.7908208693286 -0.5 L 25 -0.5 Z M 204.9041021193286 0.5 L 339.6949229886572 0.5 L 339.6949229886572 3.5 L 346.6949229886572 0 L 339.6949229886572 -3.5 L 339.6949229886572 -0.5 L 204.9041021193286 -0.5 Z"/><text text-anchor="middle" pointer-events="none" font-size="8px" fill="#000000" x="182.3474614943286" y="3" font-family="sans-serif">GRANTED</text></g><g class="relationship" transform="translate(298.5164228664514 -31.553447250299513) rotate(482.14850626567545)"><path class="outline" fill="#A5ABB6" stroke="none" d="M 25 0.5 L 100.5232264104828 0.5 L 100.5232264104828 -0.5 L 25 -0.5 Z M 145.6365076604828 0.5 L 221.1597340709656 0.5 L 221.1597340709656 3.5 L 228.1597340709656 0 L 221.1597340709656 -3.5 L 221.1597340709656 -0.5 L 145.6365076604828 -0.5 Z"/><text text-anchor="middle" pointer-events="none" font-size="8px" fill="#000000" x="123.0798670354828" y="3" transform="rotate(180 123.0798670354828 0)" font-family="sans-serif">GRANTED</text></g><g class="relationship" transform="translate(-114.64555206909773 255.36649431429316) rotate(413.6583688415273)"><path class="outline" fill="#A5ABB6" stroke="none" d="M 25 0.5 L 34.964197294375495 0.5 L 34.964197294375495 -0.5 L 25 -0.5 Z M 57.850916044375495 0.5 L 67.81511333875099 0.5 L 67.81511333875099 3.5 L 74.81511333875099 0 L 67.81511333875099 -3.5 L 67.81511333875099 -0.5 L 57.850916044375495 -0.5 Z"/><text text-anchor="middle" pointer-events="none" font-size="8px" fill="#000000" x="46.407556669375495" y="3" font-family="sans-serif">FOR</text></g><g class="relationship" transform="translate(-98.5094052114789 167.58630615155568) rotate(378.4234347793017)"><path class="outline" fill="#A5ABB6" stroke="none" d="M 25 0.5 L 42.66988739252588 0.5 L 42.66988739252588 -0.5 L 25 -0.5 Z M 97.43551239252588 0.5 L 115.10539978505176 0.5 L 115.10539978505176 3.5 L 122.10539978505176 0 L 115.10539978505176 -3.5 L 115.10539978505176 -0.5 L 97.43551239252588 -0.5 Z"/><text text-anchor="middle" pointer-events="none" font-size="8px" fill="#000000" x="70.05269989252588" y="3" font-family="sans-serif">APPLIES_TO</text></g><g class="relationship" transform="translate(-98.5094052114789 167.58630615155568) rotate(460.4160806221911)"><path class="outline" fill="#A5ABB6" stroke="none" d="M 25 0.5 L 25.457519116510326 0.5 L 25.457519116510326 -0.5 L 25 -0.5 Z M 56.793456616510326 0.5 L 57.25097573302065 0.5 L 57.25097573302065 3.5 L 64.25097573302065 0 L 57.25097573302065 -3.5 L 57.25097573302065 -0.5 L 56.793456616510326 -0.5 Z"/><text text-anchor="middle" pointer-events="none" font-size="8px" fill="#000000" x="41.125487866510326" y="3" transform="rotate(180 41.125487866510326 0)" font-family="sans-serif">SCO…</text></g><g class="relationship" transform="translate(-184.26906986722884 52.40290008514441) rotate(413.33051829833187)"><path class="outline" fill="#A5ABB6" stroke="none" d="M 25 0.5 L 45.745060460222334 0.5 L 45.745060460222334 -0.5 L 25 -0.5 Z M 90.85834171022233 0.5 L 111.60340217044467 0.5 L 111.60340217044467 3.5 L 118.60340217044467 0 L 111.60340217044467 -3.5 L 111.60340217044467 -0.5 L 90.85834171022233 -0.5 Z"/><text text-anchor="middle" pointer-events="none" font-size="8px" fill="#000000" x="68.30170108522233" y="3" font-family="sans-serif">GRANTED</text></g><g class="relationship" transform="translate(136.75473868762683 -0.5631686180669426) rotate(474.0299277571068)"><path class="outline" fill="#A5ABB6" stroke="none" d="M 25 0.5 L 86.62102740076028 0.5 L 86.62102740076028 -0.5 L 25 -0.5 Z M 141.38665240076028 0.5 L 203.00767980152057 0.5 L 203.00767980152057 3.5 L 210.00767980152057 0 L 203.00767980152057 -3.5 L 203.00767980152057 -0.5 L 141.38665240076028 -0.5 Z"/><text text-anchor="middle" pointer-events="none" font-size="8px" fill="#000000" x="114.00383990076028" y="3" transform="rotate(180 114.00383990076028 0)" font-family="sans-serif">APPLIES_TO</text></g><g class="relationship" transform="translate(-184.26906986722884 52.40290008514441) rotate(350.63111177282235)"><path class="outline" fill="#A5ABB6" stroke="none" d="M 25 0.5 L 136.6253267937477 0.5 L 136.6253267937477 -0.5 L 25 -0.5 Z M 181.7386080437477 0.5 L 293.3639348374954 0.5 L 293.3639348374954 3.5 L 300.3639348374954 0 L 293.3639348374954 -3.5 L 293.3639348374954 -0.5 L 181.7386080437477 -0.5 Z"/><text text-anchor="middle" pointer-events="none" font-size="8px" fill="#000000" x="159.1819674187477" y="3" font-family="sans-serif">GRANTED</text></g><g class="relationship" transform="translate(298.5164228664514 -31.553447250299513) rotate(513.3626259443597)"><path class="outline" fill="#A5ABB6" stroke="none" d="M 25 0.5 L 196.02788694610186 0.5 L 196.02788694610186 -0.5 L 25 -0.5 Z M 241.14116819610186 0.5 L 412.1690551422037 0.5 L 412.1690551422037 3.5 L 419.1690551422037 0 L 412.1690551422037 -3.5 L 412.1690551422037 -0.5 L 241.14116819610186 -0.5 Z"/><text text-anchor="middle" pointer-events="none" font-size="8px" fill="#000000" x="218.58452757110186" y="3" transform="rotate(180 218.58452757110186 0)" font-family="sans-serif">GRANTED</text></g><g class="relationship" transform="translate(298.5164228664514 -31.553447250299513) rotate(529.1546936078539)"><path class="outline" fill="#A5ABB6" stroke="none" d="M 25 0.5 L 56.29510470877116 0.5 L 56.29510470877116 -0.5 L 25 -0.5 Z M 101.40838595877116 0.5 L 132.70349066754233 0.5 L 132.70349066754233 3.5 L 139.70349066754233 0 L 132.70349066754233 -3.5 L 132.70349066754233 -0.5 L 101.40838595877116 -0.5 Z"/><text text-anchor="middle" pointer-events="none" font-size="8px" fill="#000000" x="78.85174533377116" y="3" transform="rotate(180 78.85174533377116 0)" font-family="sans-serif">GRANTED</text></g><g class="relationship" transform="translate(162.16537434168262 111.24174963019885) rotate(221.3049514063399)"><path class="outline" fill="#A5ABB6" stroke="none" d="M 25 0.5 L 155.791863740089 0.5 L 155.791863740089 -0.5 L 25 -0.5 Z M 210.557488740089 0.5 L 341.349352480178 0.5 L 341.349352480178 3.5 L 348.349352480178 0 L 341.349352480178 -3.5 L 341.349352480178 -0.5 L 210.557488740089 -0.5 Z"/><text text-anchor="middle" pointer-events="none" font-size="8px" fill="#000000" x="183.174676240089" y="3" transform="rotate(180 183.174676240089 0)" font-family="sans-serif">APPLIES_TO</text></g><g class="relationship" transform="translate(162.16537434168262 111.24174963019885) rotate(512.495750148435)"><path class="outline" fill="#A5ABB6" stroke="none" d="M 25 0.5 L 135.53793990885077 0.5 L 135.53793990885077 -0.5 L 25 -0.5 Z M 169.54575240885077 0.5 L 280.08369231770155 0.5 L 280.08369231770155 3.5 L 287.08369231770155 0 L 280.08369231770155 -3.5 L 280.08369231770155 -0.5 L 169.54575240885077 -0.5 Z"/><text text-anchor="middle" pointer-events="none" font-size="8px" fill="#000000" x="152.54184615885077" y="3" transform="rotate(180 152.54184615885077 0)" font-family="sans-serif">SCOPE</text></g><g class="relationship" transform="translate(-184.26906986722884 52.40290008514441) rotate(369.639203334204)"><path class="outline" fill="#A5ABB6" stroke="none" d="M 25 0.5 L 149.64113564872164 0.5 L 149.64113564872164 -0.5 L 25 -0.5 Z M 194.75441689872164 0.5 L 319.3955525474433 0.5 L 319.3955525474433 3.5 L 326.3955525474433 0 L 319.3955525474433 -3.5 L 319.3955525474433 -0.5 L 194.75441689872164 -0.5 Z"/><text text-anchor="middle" pointer-events="none" font-size="8px" fill="#000000" x="172.19777627372164" y="3" font-family="sans-serif">GRANTED</text></g><g class="relationship" transform="translate(10.070488230409342 -80.61938302199968) rotate(203.0322918784052)"><path class="outline" fill="#A5ABB6" stroke="none" d="M 25 0.5 L 38.86072734255123 0.5 L 38.86072734255123 -0.5 L 25 -0.5 Z M 93.62635234255123 0.5 L 107.48707968510246 0.5 L 107.48707968510246 3.5 L 114.48707968510246 0 L 107.48707968510246 -3.5 L 107.48707968510246 -0.5 L 93.62635234255123 -0.5 Z"/><text text-anchor="middle" pointer-events="none" font-size="8px" fill="#000000" x="66.24353984255123" y="3" transform="rotate(180 66.24353984255123 0)" font-family="sans-serif">APPLIES_TO</text></g><g class="relationship" transform="translate(-184.26906986722884 52.40290008514441) rotate(325.6089910763853)"><path class="outline" fill="#A5ABB6" stroke="none" d="M 25 0.5 L 91.69605748062992 0.5 L 91.69605748062992 -0.5 L 25 -0.5 Z M 136.80933873062992 0.5 L 203.50539621125984 0.5 L 203.50539621125984 3.5 L 210.50539621125984 0 L 203.50539621125984 -3.5 L 203.50539621125984 -0.5 L 136.80933873062992 -0.5 Z"/><text text-anchor="middle" pointer-events="none" font-size="8px" fill="#000000" x="114.25269810562992" y="3" font-family="sans-serif">GRANTED</text></g><g class="relationship" transform="translate(298.5164228664514 -31.553447250299513) rotate(493.67755006248353)"><path class="outline" fill="#A5ABB6" stroke="none" d="M 25 0.5 L 72.66275550101993 0.5 L 72.66275550101993 -0.5 L 25 -0.5 Z M 117.77603675101993 0.5 L 165.43879225203986 0.5 L 165.43879225203986 3.5 L 172.43879225203986 0 L 165.43879225203986 -3.5 L 165.43879225203986 -0.5 L 117.77603675101993 -0.5 Z"/><text text-anchor="middle" pointer-events="none" font-size="8px" fill="#000000" x="95.21939612601993" y="3" transform="rotate(180 95.21939612601993 0)" font-family="sans-serif">GRANTED</text></g><g class="relationship" transform="translate(298.5164228664514 -31.553447250299513) rotate(189.6538614146362)"><path class="outline" fill="#A5ABB6" stroke="none" d="M 25 0.5 L 120.23803055376547 0.5 L 120.23803055376547 -0.5 L 25 -0.5 Z M 165.35131180376547 0.5 L 260.58934235753094 0.5 L 260.58934235753094 3.5 L 267.58934235753094 0 L 260.58934235753094 -3.5 L 260.58934235753094 -0.5 L 165.35131180376547 -0.5 Z"/><text text-anchor="middle" pointer-events="none" font-size="8px" fill="#000000" x="142.79467117876547" y="3" transform="rotate(180 142.79467117876547 0)" font-family="sans-serif">GRANTED</text></g><g class="relationship" transform="translate(-303.09585460688606 226.91561012842385) rotate(383.73155619088834)"><path class="outline" fill="#A5ABB6" stroke="none" d="M 25 0.5 L 120.29232426638822 0.5 L 120.29232426638822 -0.5 L 25 -0.5 Z M 143.17904301638822 0.5 L 238.47136728277644 0.5 L 238.47136728277644 3.5 L 245.47136728277644 0 L 238.47136728277644 -3.5 L 238.47136728277644 -0.5 L 143.17904301638822 -0.5 Z"/><text text-anchor="middle" pointer-events="none" font-size="8px" fill="#000000" x="131.73568364138822" y="3" font-family="sans-serif">FOR</text></g><g class="relationship" transform="translate(-303.09585460688606 226.91561012842385) rotate(539.16138840185)"><path class="outline" fill="#A5ABB6" stroke="none" d="M 25 0.5 L 48.17618269795922 0.5 L 48.17618269795922 -0.5 L 25 -0.5 Z M 96.40665144795922 0.5 L 119.58283414591844 0.5 L 119.58283414591844 3.5 L 126.58283414591844 0 L 119.58283414591844 -3.5 L 119.58283414591844 -0.5 L 96.40665144795922 -0.5 Z"/><text text-anchor="middle" pointer-events="none" font-size="8px" fill="#000000" x="72.29141707295922" y="3" transform="rotate(180 72.29141707295922 0)" font-family="sans-serif">QUALIFIED</text></g><g class="relationship" transform="translate(-165.4359819823583 176.04781528197637) rotate(190.30907089895067)"><path class="outline" fill="#A5ABB6" stroke="none" d="M 25 0.5 L 57.54268880812283 0.5 L 57.54268880812283 -0.5 L 25 -0.5 Z M 112.30831380812283 0.5 L 144.85100261624567 0.5 L 144.85100261624567 3.5 L 151.85100261624567 0 L 144.85100261624567 -3.5 L 144.85100261624567 -0.5 L 112.30831380812283 -0.5 Z"/><text text-anchor="middle" pointer-events="none" font-size="8px" fill="#000000" x="84.92550130812283" y="3" transform="rotate(180 84.92550130812283 0)" font-family="sans-serif">APPLIES_TO</text></g><g class="relationship" transform="translate(-165.4359819823583 176.04781528197637) rotate(519.7198233968559)"><path class="outline" fill="#A5ABB6" stroke="none" d="M 25 0.5 L 52.87485955377575 0.5 L 52.87485955377575 -0.5 L 25 -0.5 Z M 86.88267205377575 0.5 L 114.7575316075515 0.5 L 114.7575316075515 3.5 L 121.7575316075515 0 L 114.7575316075515 -3.5 L 114.7575316075515 -0.5 L 86.88267205377575 -0.5 Z"/><text text-anchor="middle" pointer-events="none" font-size="8px" fill="#000000" x="69.87876580377575" y="3" transform="rotate(180 69.87876580377575 0)" font-family="sans-serif">SCOPE</text></g><g class="relationship" transform="translate(-184.26906986722884 52.40290008514441) rotate(441.3395066373152)"><path class="outline" fill="#A5ABB6" stroke="none" d="M 25 0.5 L 40.922209180057045 0.5 L 40.922209180057045 -0.5 L 25 -0.5 Z M 77.14877168005705 0.5 L 93.07098086011409 0.5 L 93.07098086011409 3.5 L 100.07098086011409 0 L 93.07098086011409 -3.5 L 93.07098086011409 -0.5 L 77.14877168005705 -0.5 Z"/><text text-anchor="middle" pointer-events="none" font-size="8px" fill="#000000" x="59.035490430057045" y="3" font-family="sans-serif">DENIED</text></g><g class="relationship" transform="translate(161.66700633847313 41.660632609606864) rotate(212.28072777719711)"><path class="outline" fill="#A5ABB6" stroke="none" d="M 25 0.5 L 134.6900313631988 0.5 L 134.6900313631988 -0.5 L 25 -0.5 Z M 189.4556563631988 0.5 L 299.1456877263976 0.5 L 299.1456877263976 3.5 L 306.1456877263976 0 L 299.1456877263976 -3.5 L 299.1456877263976 -0.5 L 189.4556563631988 -0.5 Z"/><text text-anchor="middle" pointer-events="none" font-size="8px" fill="#000000" x="162.0728438631988" y="3" transform="rotate(180 162.0728438631988 0)" font-family="sans-serif">APPLIES_TO</text></g><g class="relationship" transform="translate(161.66700633847313 41.660632609606864) rotate(502.2808901553169)"><path class="outline" fill="#A5ABB6" stroke="none" d="M 25 0.5 L 154.15205933712198 0.5 L 154.15205933712198 -0.5 L 25 -0.5 Z M 188.15987183712198 0.5 L 317.31193117424397 0.5 L 317.31193117424397 3.5 L 324.31193117424397 0 L 317.31193117424397 -3.5 L 317.31193117424397 -0.5 L 188.15987183712198 -0.5 Z"/><text text-anchor="middle" pointer-events="none" font-size="8px" fill="#000000" x="171.15596558712198" y="3" transform="rotate(180 171.15596558712198 0)" font-family="sans-serif">SCOPE</text></g><g class="relationship" transform="translate(298.5164228664514 -31.553447250299513) rotate(511.8533353124794)"><path class="outline" fill="#A5ABB6" stroke="none" d="M 25 0.5 L 51.54500931522493 0.5 L 51.54500931522493 -0.5 L 25 -0.5 Z M 96.65829056522493 0.5 L 123.20329988044986 0.5 L 123.20329988044986 3.5 L 130.20329988044986 0 L 123.20329988044986 -3.5 L 123.20329988044986 -0.5 L 96.65829056522493 -0.5 Z"/><text text-anchor="middle" pointer-events="none" font-size="8px" fill="#000000" x="74.10164994022493" y="3" transform="rotate(180 74.10164994022493 0)" font-family="sans-serif">GRANTED</text></g><g class="relationship" transform="translate(103.80859876140536 -118.69061656104238) rotate(184.24942205403323)"><path class="outline" fill="#A5ABB6" stroke="none" d="M 25 0.5 L 80.4762744924867 0.5 L 80.4762744924867 -0.5 L 25 -0.5 Z M 135.2418994924867 0.5 L 190.7181739849734 0.5 L 190.7181739849734 3.5 L 197.7181739849734 0 L 190.7181739849734 -3.5 L 190.7181739849734 -0.5 L 135.2418994924867 -0.5 Z"/><text text-anchor="middle" pointer-events="none" font-size="8px" fill="#000000" x="107.8590869924867" y="3" transform="rotate(180 107.8590869924867 0)" font-family="sans-serif">APPLIES_TO</text></g><g class="relationship" transform="translate(298.5164228664514 -31.553447250299513) rotate(204.1098442167289)"><path class="outline" fill="#A5ABB6" stroke="none" d="M 25 0.5 L 80.60171938865601 0.5 L 80.60171938865601 -0.5 L 25 -0.5 Z M 125.71500063865601 0.5 L 181.31672002731202 0.5 L 181.31672002731202 3.5 L 188.31672002731202 0 L 181.31672002731202 -3.5 L 181.31672002731202 -0.5 L 125.71500063865601 -0.5 Z"/><text text-anchor="middle" pointer-events="none" font-size="8px" fill="#000000" x="103.15836001365601" y="3" transform="rotate(180 103.15836001365601 0)" font-family="sans-serif">GRANTED</text></g><g class="relationship" transform="translate(-184.26906986722884 52.40290008514441) rotate(230.79811739031857)"><path class="outline" fill="#A5ABB6" stroke="none" d="M 25 0.5 L 74.14921212856122 0.5 L 74.14921212856122 -0.5 L 25 -0.5 Z M 110.37577462856122 0.5 L 159.52498675712243 0.5 L 159.52498675712243 3.5 L 166.52498675712243 0 L 159.52498675712243 -3.5 L 159.52498675712243 -0.5 L 110.37577462856122 -0.5 Z"/><text text-anchor="middle" pointer-events="none" font-size="8px" fill="#000000" x="92.26249337856122" y="3" transform="rotate(180 92.26249337856122 0)" font-family="sans-serif">DENIED</text></g><g class="relationship" transform="translate(-184.26906986722884 52.40290008514441) rotate(266.7040734878391)"><path class="outline" fill="#A5ABB6" stroke="none" d="M 25 0.5 L 31.972466076802547 0.5 L 31.972466076802547 -0.5 L 25 -0.5 Z M 68.19902857680255 0.5 L 75.1714946536051 0.5 L 75.1714946536051 3.5 L 82.1714946536051 0 L 75.1714946536051 -3.5 L 75.1714946536051 -0.5 L 68.19902857680255 -0.5 Z"/><text text-anchor="middle" pointer-events="none" font-size="8px" fill="#000000" x="50.08574732680255" y="3" transform="rotate(180 50.08574732680255 0)" font-family="sans-serif">DENIED</text></g><g class="relationship" transform="translate(372.97200344098803 222.07787650483385) rotate(369.42332510983675)"><path class="outline" fill="#A5ABB6" stroke="none" d="M 25 0.5 L 85.32142125368793 0.5 L 85.32142125368793 -0.5 L 25 -0.5 Z M 140.08704625368793 0.5 L 200.40846750737586 0.5 L 200.40846750737586 3.5 L 207.40846750737586 0 L 200.40846750737586 -3.5 L 200.40846750737586 -0.5 L 140.08704625368793 -0.5 Z"/><text text-anchor="middle" pointer-events="none" font-size="8px" fill="#000000" x="112.70423375368793" y="3" font-family="sans-serif">APPLIES_TO</text></g><g class="relationship" transform="translate(372.97200344098803 222.07787650483385) rotate(512.8637583316305)"><path class="outline" fill="#A5ABB6" stroke="none" d="M 25 0.5 L 71.56650651340006 0.5 L 71.56650651340006 -0.5 L 25 -0.5 Z M 105.57431901340006 0.5 L 152.1408255268001 0.5 L 152.1408255268001 3.5 L 159.1408255268001 0 L 152.1408255268001 -3.5 L 152.1408255268001 -0.5 L 105.57431901340006 -0.5 Z"/><text text-anchor="middle" pointer-events="none" font-size="8px" fill="#000000" x="88.57041276340006" y="3" transform="rotate(180 88.57041276340006 0)" font-family="sans-serif">SCOPE</text></g><g class="relationship" transform="translate(298.5164228664514 -31.553447250299513) rotate(433.6399606736968)"><path class="outline" fill="#A5ABB6" stroke="none" d="M 25 0.5 L 106.11037669444377 0.5 L 106.11037669444377 -0.5 L 25 -0.5 Z M 151.22365794444377 0.5 L 232.33403463888754 0.5 L 232.33403463888754 3.5 L 239.33403463888754 0 L 232.33403463888754 -3.5 L 232.33403463888754 -0.5 L 151.22365794444377 -0.5 Z"/><text text-anchor="middle" pointer-events="none" font-size="8px" fill="#000000" x="128.66701731944377" y="3" font-family="sans-serif">GRANTED</text></g><g class="relationship" transform="translate(348.23564530561003 167.6342865211238) rotate(380.0087022911834)"><path class="outline" fill="#A5ABB6" stroke="none" d="M 25 0.5 L 104.27981963692693 0.5 L 104.27981963692693 -0.5 L 25 -0.5 Z M 159.04544463692693 0.5 L 238.32526427385386 0.5 L 238.32526427385386 3.5 L 245.32526427385386 0 L 238.32526427385386 -3.5 L 238.32526427385386 -0.5 L 159.04544463692693 -0.5 Z"/><text text-anchor="middle" pointer-events="none" font-size="8px" fill="#000000" x="131.66263213692693" y="3" font-family="sans-serif">APPLIES_TO</text></g><g class="relationship" transform="translate(348.23564530561003 167.6342865211238) rotate(495.14519524791297)"><path class="outline" fill="#A5ABB6" stroke="none" d="M 25 0.5 L 77.63107321989497 0.5 L 77.63107321989497 -0.5 L 25 -0.5 Z M 111.63888571989497 0.5 L 164.26995893978994 0.5 L 164.26995893978994 3.5 L 171.26995893978994 0 L 164.26995893978994 -3.5 L 164.26995893978994 -0.5 L 111.63888571989497 -0.5 Z"/><text text-anchor="middle" pointer-events="none" font-size="8px" fill="#000000" x="94.63497946989497" y="3" transform="rotate(180 94.63497946989497 0)" font-family="sans-serif">SCOPE</text></g><g class="relationship" transform="translate(298.5164228664514 -31.553447250299513) rotate(435.98479690682905)"><path class="outline" fill="#A5ABB6" stroke="none" d="M 25 0.5 L 76.59295066126614 0.5 L 76.59295066126614 -0.5 L 25 -0.5 Z M 121.70623191126614 0.5 L 173.2991825725323 0.5 L 173.2991825725323 3.5 L 180.2991825725323 0 L 173.2991825725323 -3.5 L 173.2991825725323 -0.5 L 121.70623191126614 -0.5 Z"/><text text-anchor="middle" pointer-events="none" font-size="8px" fill="#000000" x="99.14959128626614" y="3" font-family="sans-serif">GRANTED</text></g><g class="relationship" transform="translate(298.5164228664514 -31.553447250299513) rotate(379.00012405479146)"><path class="outline" fill="#A5ABB6" stroke="none" d="M 25 0.5 L 55.92372993158378 0.5 L 55.92372993158378 -0.5 L 25 -0.5 Z M 101.03701118158378 0.5 L 131.96074111316756 0.5 L 131.96074111316756 3.5 L 138.96074111316756 0 L 131.96074111316756 -3.5 L 131.96074111316756 -0.5 L 101.03701118158378 -0.5 Z"/><text text-anchor="middle" pointer-events="none" font-size="8px" fill="#000000" x="78.48037055658378" y="3" font-family="sans-serif">GRANTED</text></g><g class="relationship" transform="translate(467.215657355761 179.4650173079861) rotate(390.85361041599265)"><path class="outline" fill="#A5ABB6" stroke="none" d="M 25 0.5 L 47.76114738071335 0.5 L 47.76114738071335 -0.5 L 25 -0.5 Z M 102.52677238071335 0.5 L 125.2879197614267 0.5 L 125.2879197614267 3.5 L 132.2879197614267 0 L 125.2879197614267 -3.5 L 125.2879197614267 -0.5 L 102.52677238071335 -0.5 Z"/><text text-anchor="middle" pointer-events="none" font-size="8px" fill="#000000" x="75.14395988071335" y="3" font-family="sans-serif">APPLIES_TO</text></g><g class="relationship" transform="translate(298.5164228664514 -31.553447250299513) rotate(411.3593253153107)"><path class="outline" fill="#A5ABB6" stroke="none" d="M 25 0.5 L 109.02502365795837 0.5 L 109.02502365795837 -0.5 L 25 -0.5 Z M 154.13830490795837 0.5 L 238.16332856591674 0.5 L 238.16332856591674 3.5 L 245.16332856591674 0 L 238.16332856591674 -3.5 L 238.16332856591674 -0.5 L 154.13830490795837 -0.5 Z"/><text text-anchor="middle" pointer-events="none" font-size="8px" fill="#000000" x="131.58166428295837" y="3" font-family="sans-serif">GRANTED</text></g><g class="relationship" transform="translate(513.023141088288 27.964545605312022) rotate(428.9782102017089)"><path class="outline" fill="#A5ABB6" stroke="none" d="M 25 0.5 L 93.47654375180008 0.5 L 93.47654375180008 -0.5 L 25 -0.5 Z M 148.24216875180008 0.5 L 216.71871250360016 0.5 L 216.71871250360016 3.5 L 223.71871250360016 0 L 216.71871250360016 -3.5 L 216.71871250360016 -0.5 L 148.24216875180008 -0.5 Z"/><text text-anchor="middle" pointer-events="none" font-size="8px" fill="#000000" x="120.85935625180008" y="3" font-family="sans-serif">APPLIES_TO</text></g><g class="relationship" transform="translate(298.5164228664514 -31.553447250299513) rotate(375.50744433405214)"><path class="outline" fill="#A5ABB6" stroke="none" d="M 25 0.5 L 85.24870924177752 0.5 L 85.24870924177752 -0.5 L 25 -0.5 Z M 130.36199049177753 0.5 L 190.61069973355504 0.5 L 190.61069973355504 3.5 L 197.61069973355504 0 L 190.61069973355504 -3.5 L 190.61069973355504 -0.5 L 130.36199049177753 -0.5 Z"/><text text-anchor="middle" pointer-events="none" font-size="8px" fill="#000000" x="107.80534986677752" y="3" font-family="sans-serif">GRANTED</text></g><g class="relationship" transform="translate(418.3304539003447 70.30541439762085) rotate(405.90600682115337)"><path class="outline" fill="#A5ABB6" stroke="none" d="M 25 0.5 L 101.27002525079831 0.5 L 101.27002525079831 -0.5 L 25 -0.5 Z M 156.0356502507983 0.5 L 232.30567550159662 0.5 L 232.30567550159662 3.5 L 239.30567550159662 0 L 232.30567550159662 -3.5 L 232.30567550159662 -0.5 L 156.0356502507983 -0.5 Z"/><text text-anchor="middle" pointer-events="none" font-size="8px" fill="#000000" x="128.6528377507983" y="3" font-family="sans-serif">APPLIES_TO</text></g><g class="relationship" transform="translate(298.5164228664514 -31.553447250299513) rotate(400.36923786840913)"><path class="outline" fill="#A5ABB6" stroke="none" d="M 25 0.5 L 52.57323558118661 0.5 L 52.57323558118661 -0.5 L 25 -0.5 Z M 97.68651683118661 0.5 L 125.25975241237322 0.5 L 125.25975241237322 3.5 L 132.25975241237322 0 L 125.25975241237322 -3.5 L 125.25975241237322 -0.5 L 97.68651683118661 -0.5 Z"/><text text-anchor="middle" pointer-events="none" font-size="8px" fill="#000000" x="75.12987620618661" y="3" font-family="sans-serif">GRANTED</text></g><g class="relationship" transform="translate(442.68909600504054 124.80943884457962) rotate(400.301566185435)"><path class="outline" fill="#A5ABB6" stroke="none" d="M 25 0.5 L 73.72285452390582 0.5 L 73.72285452390582 -0.5 L 25 -0.5 Z M 128.48847952390582 0.5 L 177.21133404781165 0.5 L 177.21133404781165 3.5 L 184.21133404781165 0 L 177.21133404781165 -3.5 L 177.21133404781165 -0.5 L 128.48847952390582 -0.5 Z"/><text text-anchor="middle" pointer-events="none" font-size="8px" fill="#000000" x="101.10566702390582" y="3" font-family="sans-serif">APPLIES_TO</text></g><g class="relationship" transform="translate(298.5164228664514 -31.553447250299513) rotate(407.32273709555784)"><path class="outline" fill="#A5ABB6" stroke="none" d="M 25 0.5 L 80.28609752369377 0.5 L 80.28609752369377 -0.5 L 25 -0.5 Z M 125.39937877369377 0.5 L 180.68547629738754 0.5 L 180.68547629738754 3.5 L 187.68547629738754 0 L 180.68547629738754 -3.5 L 180.68547629738754 -0.5 L 125.39937877369377 -0.5 Z"/><text text-anchor="middle" pointer-events="none" font-size="8px" fill="#000000" x="102.84273814869377" y="3" font-family="sans-serif">GRANTED</text></g><g class="relationship" transform="translate(407.8542579838834 173.3625934123061) rotate(384.0538374950944)"><path class="outline" fill="#A5ABB6" stroke="none" d="M 25 0.5 L 75.55493516217321 0.5 L 75.55493516217321 -0.5 L 25 -0.5 Z M 130.3205601621732 0.5 L 180.87549532434642 0.5 L 180.87549532434642 3.5 L 187.87549532434642 0 L 180.87549532434642 -3.5 L 180.87549532434642 -0.5 L 130.3205601621732 -0.5 Z"/><text text-anchor="middle" pointer-events="none" font-size="8px" fill="#000000" x="102.93774766217321" y="3" font-family="sans-serif">APPLIES_TO</text></g><g class="relationship" transform="translate(298.5164228664514 -31.553447250299513) rotate(421.9167865270565)"><path class="outline" fill="#A5ABB6" stroke="none" d="M 25 0.5 L 90.0740464359631 0.5 L 90.0740464359631 -0.5 L 25 -0.5 Z M 135.1873276859631 0.5 L 200.2613741219262 0.5 L 200.2613741219262 3.5 L 207.2613741219262 0 L 200.2613741219262 -3.5 L 200.2613741219262 -0.5 L 135.1873276859631 -0.5 Z"/><text text-anchor="middle" pointer-events="none" font-size="8px" fill="#000000" x="112.6306870609631" y="3" font-family="sans-serif">GRANTED</text></g><g class="relationship" transform="translate(537.4394666375349 82.45784221275626) rotate(429.96083418279113)"><path class="outline" fill="#A5ABB6" stroke="none" d="M 25 0.5 L 63.677878986648764 0.5 L 63.677878986648764 -0.5 L 25 -0.5 Z M 118.44350398664876 0.5 L 157.12138297329753 0.5 L 157.12138297329753 3.5 L 164.12138297329753 0 L 157.12138297329753 -3.5 L 157.12138297329753 -0.5 L 118.44350398664876 -0.5 Z"/><text text-anchor="middle" pointer-events="none" font-size="8px" fill="#000000" x="91.06069148664876" y="3" font-family="sans-serif">APPLIES_TO</text></g><g class="relationship" transform="translate(298.5164228664514 -31.553447250299513) rotate(385.5099320671203)"><path class="outline" fill="#A5ABB6" stroke="none" d="M 25 0.5 L 106.3091357013108 0.5 L 106.3091357013108 -0.5 L 25 -0.5 Z M 151.4224169513108 0.5 L 232.7315526526216 0.5 L 232.7315526526216 3.5 L 239.7315526526216 0 L 232.7315526526216 -3.5 L 232.7315526526216 -0.5 L 151.4224169513108 -0.5 Z"/><text text-anchor="middle" pointer-events="none" font-size="8px" fill="#000000" x="128.8657763263108" y="3" font-family="sans-serif">GRANTED</text></g><g class="relationship" transform="translate(383.3291127321065 118.77016858346458) rotate(392.8514161919413)"><path class="outline" fill="#A5ABB6" stroke="none" d="M 25 0.5 L 99.41138864186414 0.5 L 99.41138864186414 -0.5 L 25 -0.5 Z M 154.17701364186414 0.5 L 228.58840228372827 0.5 L 228.58840228372827 3.5 L 235.58840228372827 0 L 228.58840228372827 -3.5 L 228.58840228372827 -0.5 L 154.17701364186414 -0.5 Z"/><text text-anchor="middle" pointer-events="none" font-size="8px" fill="#000000" x="126.79420114186414" y="3" font-family="sans-serif">APPLIES_TO</text></g><g class="relationship" transform="translate(298.5164228664514 -31.553447250299513) rotate(420.56827815156714)"><path class="outline" fill="#A5ABB6" stroke="none" d="M 25 0.5 L 60.24281163222017 0.5 L 60.24281163222017 -0.5 L 25 -0.5 Z M 105.35609288222017 0.5 L 140.59890451444033 0.5 L 140.59890451444033 3.5 L 147.59890451444033 0 L 140.59890451444033 -3.5 L 140.59890451444033 -0.5 L 105.35609288222017 -0.5 Z"/><text text-anchor="middle" pointer-events="none" font-size="8px" fill="#000000" x="82.79945225722017" y="3" font-family="sans-serif">GRANTED</text></g><g class="relationship" transform="translate(502.3078421099007 130.93234082557697) rotate(412.27739091468226)"><path class="outline" fill="#A5ABB6" stroke="none" d="M 25 0.5 L 50.78604080534947 0.5 L 50.78604080534947 -0.5 L 25 -0.5 Z M 105.55166580534947 0.5 L 131.33770661069894 0.5 L 131.33770661069894 3.5 L 138.33770661069894 0 L 131.33770661069894 -3.5 L 131.33770661069894 -0.5 L 105.55166580534947 -0.5 Z"/><text text-anchor="middle" pointer-events="none" font-size="8px" fill="#000000" x="78.16885330534947" y="3" font-family="sans-serif">APPLIES_TO</text></g><g class="relationship" transform="translate(298.5164228664514 -31.553447250299513) rotate(398.565852179672)"><path class="outline" fill="#A5ABB6" stroke="none" d="M 25 0.5 L 104.26274960904956 0.5 L 104.26274960904956 -0.5 L 25 -0.5 Z M 149.37603085904956 0.5 L 228.63878046809913 0.5 L 228.63878046809913 3.5 L 235.63878046809913 0 L 228.63878046809913 -3.5 L 228.63878046809913 -0.5 L 149.37603085904956 -0.5 Z"/><text text-anchor="middle" pointer-events="none" font-size="8px" fill="#000000" x="126.81939023404956" y="3" font-family="sans-serif">GRANTED</text></g><g class="relationship" transform="translate(477.9451532060943 76.43599302980681) rotate(415.9151421210575)"><path class="outline" fill="#A5ABB6" stroke="none" d="M 25 0.5 L 80.01532867167954 0.5 L 80.01532867167954 -0.5 L 25 -0.5 Z M 134.78095367167953 0.5 L 189.79628234335908 0.5 L 189.79628234335908 3.5 L 196.79628234335908 0 L 189.79628234335908 -3.5 L 189.79628234335908 -0.5 L 134.78095367167953 -0.5 Z"/><text text-anchor="middle" pointer-events="none" font-size="8px" fill="#000000" x="107.39814117167954" y="3" font-family="sans-serif">APPLIES_TO</text></g><g class="relationship" transform="translate(298.5164228664514 -31.553447250299513) rotate(391.0416927312409)"><path class="outline" fill="#A5ABB6" stroke="none" d="M 25 0.5 L 78.65294404052491 0.5 L 78.65294404052491 -0.5 L 25 -0.5 Z M 123.76622529052491 0.5 L 177.41916933104983 0.5 L 177.41916933104983 3.5 L 184.41916933104983 0 L 177.41916933104983 -3.5 L 177.41916933104983 -0.5 L 123.76622529052491 -0.5 Z"/><text text-anchor="middle" pointer-events="none" font-size="8px" fill="#000000" x="101.20958466552491" y="3" font-family="sans-serif">GRANTED</text></g></g><g class="layer nodes"><g class="node" transform="translate(-25.80426917710011,-284.4944810905403)"><circle class="outline" cx="0" cy="0" r="25" fill="#DA7194" stroke="#cc3c6c" stroke-width="2px"/><text text-anchor="middle" pointer-events="none" font-family="sans-serif" dy="1.5625" font-size="25" fill="#FFFFFF"/><text text-anchor="middle" pointer-events="none" y="5" font-size="10px" fill="#FFFFFF" font-family="sans-serif"> system</text></g><g class="node" transform="translate(-55.49525458813501,335.76735972469356)"><circle class="outline" cx="0" cy="0" r="25" fill="#DA7194" stroke="#cc3c6c" stroke-width="2px"/><text text-anchor="middle" pointer-events="none" font-family="sans-serif" dy="1.5625" font-size="25" fill="#FFFFFF"/><text text-anchor="middle" pointer-events="none" y="5" font-size="10px" fill="#FFFFFF" font-family="sans-serif"> fosdem</text></g><g class="node" transform="translate(41.05637612572913,214.0770721772359)"><circle class="outline" cx="0" cy="0" r="25" fill="#FFC454" stroke="#d7a013" stroke-width="2px"/><text text-anchor="middle" pointer-events="none" font-family="sans-serif" dy="1.5625" font-size="25" fill="#604A0E"/><text text-anchor="middle" pointer-events="none" y="5" font-size="10px" fill="#604A0E" font-family="sans-serif"> graph</text></g><g class="node" transform="translate(-118.29730794885782,-135.1936837793731)"><circle class="outline" cx="0" cy="0" r="25" fill="#FFC454" stroke="#d7a013" stroke-width="2px"/><text text-anchor="middle" pointer-events="none" font-family="sans-serif" dy="1.5625" font-size="25" fill="#604A0E"/><text text-anchor="middle" pointer-events="none" y="5" font-size="10px" fill="#604A0E" font-family="sans-serif"> all_prop…</text></g><g class="node" transform="translate(602.2442557684608,260.12955297006533)"><circle class="outline" cx="0" cy="0" r="25" fill="#FFC454" stroke="#d7a013" stroke-width="2px"/><text text-anchor="middle" pointer-events="none" font-family="sans-serif" dy="1.5625" font-size="25" fill="#604A0E"/><text text-anchor="middle" pointer-events="none" y="5" font-size="10px" fill="#604A0E" font-family="sans-serif"> database</text></g><g class="node" transform="translate(-17.635987306345022,269.32492277331653)"><circle class="outline" cx="0" cy="0" r="25" fill="#57C7E3" stroke="#23b3d7" stroke-width="2px"/><text text-anchor="middle" pointer-events="none" font-family="sans-serif" dy="1.5625" font-size="25" fill="#FFFFFF"/><text text-anchor="middle" pointer-events="none" y="5" font-size="10px" fill="#FFFFFF" font-family="sans-serif"> traverse</text></g><g class="node" transform="translate(113.48432682750992,263.59140949252935)"><circle class="outline" cx="0" cy="0" r="25" fill="#57C7E3" stroke="#23b3d7" stroke-width="2px"/><text text-anchor="middle" pointer-events="none" font-family="sans-serif" dy="1.5625" font-size="25" fill="#FFFFFF"/><text text-anchor="middle" pointer-events="none" y="5" font-size="10px" fill="#FFFFFF" font-family="sans-serif"> traverse</text></g><g class="node" transform="translate(-120.99776677589463,-258.91401822291647)"><circle class="outline" cx="0" cy="0" r="25" fill="#57C7E3" stroke="#23b3d7" stroke-width="2px"/><text text-anchor="middle" pointer-events="none" font-family="sans-serif" dy="1.5625" font-size="25" fill="#FFFFFF"/><text text-anchor="middle" pointer-events="none" y="5" font-size="10px" fill="#FFFFFF" font-family="sans-serif"> read</text></g><g class="node" transform="translate(-201.18963023403495,-226.2182910811503)"><circle class="outline" cx="0" cy="0" r="25" fill="#57C7E3" stroke="#23b3d7" stroke-width="2px"/><text text-anchor="middle" pointer-events="none" font-family="sans-serif" dy="1.5625" font-size="25" fill="#FFFFFF"/><text text-anchor="middle" pointer-events="none" y="5" font-size="10px" fill="#FFFFFF" font-family="sans-serif"> read</text></g><g class="node" transform="translate(-305.32335041078954,-96.01435536177735)"><circle class="outline" cx="0" cy="0" r="25" fill="#57C7E3" stroke="#23b3d7" stroke-width="2px"/><text text-anchor="middle" pointer-events="none" font-family="sans-serif" dy="1.5625" font-size="25" fill="#FFFFFF"/><text text-anchor="middle" pointer-events="none" y="5" font-size="10px" fill="#FFFFFF" font-family="sans-serif"> write</text></g><g class="node" transform="translate(-190.43068585315822,-54.59132291184568)"><circle class="outline" cx="0" cy="0" r="25" fill="#57C7E3" stroke="#23b3d7" stroke-width="2px"/><text text-anchor="middle" pointer-events="none" font-family="sans-serif" dy="1.5625" font-size="25" fill="#FFFFFF"/><text text-anchor="middle" pointer-events="none" y="5" font-size="10px" fill="#FFFFFF" font-family="sans-serif"> write</text></g><g class="node" transform="translate(453.544233680277,21.827284298189582)"><circle class="outline" cx="0" cy="0" r="25" fill="#57C7E3" stroke="#23b3d7" stroke-width="2px"/><text text-anchor="middle" pointer-events="none" font-family="sans-serif" dy="1.5625" font-size="25" fill="#FFFFFF"/><text text-anchor="middle" pointer-events="none" y="5" font-size="10px" fill="#FFFFFF" font-family="sans-serif"> access</text></g><g class="node" transform="translate(539.4995987297419,379.76546314731553)"><circle class="outline" cx="0" cy="0" r="25" fill="#57C7E3" stroke="#23b3d7" stroke-width="2px"/><text text-anchor="middle" pointer-events="none" font-family="sans-serif" dy="1.5625" font-size="25" fill="#FFFFFF"/><text text-anchor="middle" pointer-events="none" y="5" font-size="10px" fill="#FFFFFF" font-family="sans-serif"> token</text></g><g class="node" transform="translate(704.4401041646961,300.0442420914487)"><circle class="outline" cx="0" cy="0" r="25" fill="#57C7E3" stroke="#23b3d7" stroke-width="2px"/><text text-anchor="middle" pointer-events="none" font-family="sans-serif" dy="1.5625" font-size="25" fill="#FFFFFF"/><text text-anchor="middle" pointer-events="none" y="5" font-size="10px" fill="#FFFFFF" font-family="sans-serif"> schema</text></g><g class="node" transform="translate(616.9903347685304,382.9274423135147)"><circle class="outline" cx="0" cy="0" r="25" fill="#57C7E3" stroke="#23b3d7" stroke-width="2px"/><text text-anchor="middle" pointer-events="none" font-family="sans-serif" dy="1.5625" font-size="25" fill="#FFFFFF"/><text text-anchor="middle" pointer-events="none" y="5" font-size="10px" fill="#FFFFFF" font-family="sans-serif"> admin</text></g><g class="node" transform="translate(523.3595078199463,-99.50321078026741)"><circle class="outline" cx="0" cy="0" r="25" fill="#569480" stroke="#447666" stroke-width="2px"/><text text-anchor="middle" pointer-events="none" font-family="sans-serif" dy="1.5625" font-size="25" fill="#FFFFFF"/><text text-anchor="middle" pointer-events="none" y="5" font-size="10px" fill="#FFFFFF" font-family="sans-serif"> Michael</text></g><g class="node" transform="translate(-383.98493013879596,-8.230719465446747)"><circle class="outline" cx="0" cy="0" r="25" fill="#569480" stroke="#447666" stroke-width="2px"/><text text-anchor="middle" pointer-events="none" font-family="sans-serif" dy="1.5625" font-size="25" fill="#FFFFFF"/><text text-anchor="middle" pointer-events="none" y="5" font-size="10px" fill="#FFFFFF" font-family="sans-serif"> Sascha</text></g><g class="node" transform="translate(298.5164228664514,-31.553447250299513)"><circle class="outline" cx="0" cy="0" r="25" fill="#8DCC93" stroke="#5db665" stroke-width="2px"/><text text-anchor="middle" pointer-events="none" font-family="sans-serif" dy="1.5625" font-size="25" fill="#604A0E"/><text text-anchor="middle" pointer-events="none" y="5" font-size="10px" fill="#604A0E" font-family="sans-serif"> organizer</text></g><g class="node" transform="translate(-184.26906986722884,52.40290008514441)"><circle class="outline" cx="0" cy="0" r="25" fill="#8DCC93" stroke="#5db665" stroke-width="2px"/><text text-anchor="middle" pointer-events="none" font-family="sans-serif" dy="1.5625" font-size="25" fill="#604A0E"/><text text-anchor="middle" pointer-events="none" y="5" font-size="10px" fill="#604A0E" font-family="sans-serif"> speaker</text></g><g class="node" transform="translate(209.10057544448995,306.0659632319405)"><circle class="outline" cx="0" cy="0" r="25" fill="#A5ABB6" stroke="#9AA1AC" stroke-width="2px"/><text text-anchor="middle" pointer-events="none" font-family="sans-serif" dy="1.5625" font-size="25" fill="#FFFFFF"/><text text-anchor="middle" pointer-events="none" y="5" font-size="10px" fill="#FFFFFF" font-family="sans-serif"> -38</text></g><g class="node" transform="translate(163.8061898668475,182.78974503738303)"><circle class="outline" cx="0" cy="0" r="25" fill="#57C7E3" stroke="#23b3d7" stroke-width="2px"/><text text-anchor="middle" pointer-events="none" font-family="sans-serif" dy="1.5625" font-size="25" fill="#FFFFFF"/><text text-anchor="middle" pointer-events="none" y="5" font-size="10px" fill="#FFFFFF" font-family="sans-serif"> access</text></g><g class="node" transform="translate(-114.64555206909773,255.36649431429316)"><circle class="outline" cx="0" cy="0" r="25" fill="#A5ABB6" stroke="#9AA1AC" stroke-width="2px"/><text text-anchor="middle" pointer-events="none" font-family="sans-serif" dy="1.5625" font-size="25" fill="#FFFFFF"/><text text-anchor="middle" pointer-events="none" y="5" font-size="10px" fill="#FFFFFF" font-family="sans-serif"> -40</text></g><g class="node" transform="translate(-98.5094052114789,167.58630615155568)"><circle class="outline" cx="0" cy="0" r="25" fill="#57C7E3" stroke="#23b3d7" stroke-width="2px"/><text text-anchor="middle" pointer-events="none" font-family="sans-serif" dy="1.5625" font-size="25" fill="#FFFFFF"/><text text-anchor="middle" pointer-events="none" y="5" font-size="10px" fill="#FFFFFF" font-family="sans-serif"> traverse</text></g><g class="node selected" transform="translate(136.75473868762683,-0.5631686180669426)"><circle class="outline" cx="0" cy="0" r="25" fill="#57C7E3" stroke="#23b3d7" stroke-width="2px"/><text text-anchor="middle" pointer-events="none" font-family="sans-serif" dy="1.5625" font-size="25" fill="#FFFFFF"/><text text-anchor="middle" pointer-events="none" y="5" font-size="10px" fill="#FFFFFF" font-family="sans-serif"> traverse</text></g><g class="node" transform="translate(162.16537434168262,111.24174963019885)"><circle class="outline" cx="0" cy="0" r="25" fill="#57C7E3" stroke="#23b3d7" stroke-width="2px"/><text text-anchor="middle" pointer-events="none" font-family="sans-serif" dy="1.5625" font-size="25" fill="#FFFFFF"/><text text-anchor="middle" pointer-events="none" y="5" font-size="10px" fill="#FFFFFF" font-family="sans-serif"> read</text></g><g class="node" transform="translate(10.070488230409342,-80.61938302199968)"><circle class="outline" cx="0" cy="0" r="25" fill="#57C7E3" stroke="#23b3d7" stroke-width="2px"/><text text-anchor="middle" pointer-events="none" font-family="sans-serif" dy="1.5625" font-size="25" fill="#FFFFFF"/><text text-anchor="middle" pointer-events="none" y="5" font-size="10px" fill="#FFFFFF" font-family="sans-serif"> read</text></g><g class="node" transform="translate(-454.66245239033793,229.1341781481937)"><circle class="outline" cx="0" cy="0" r="25" fill="#ECB5C9" stroke="#da7298" stroke-width="2px"/><text text-anchor="middle" pointer-events="none" font-family="sans-serif" dy="1.5625" font-size="25" fill="#604A0E"/><text text-anchor="middle" pointer-events="none" y="5" font-size="10px" fill="#604A0E" font-family="sans-serif"> Speaker</text></g><g class="node" transform="translate(-303.09585460688606,226.91561012842385)"><circle class="outline" cx="0" cy="0" r="25" fill="#A5ABB6" stroke="#9AA1AC" stroke-width="2px"/><text text-anchor="middle" pointer-events="none" font-family="sans-serif" dy="1.5625" font-size="25" fill="#FFFFFF"/><text text-anchor="middle" pointer-events="none" y="5" font-size="10px" fill="#FFFFFF" font-family="sans-serif"> -47</text></g><g class="node" transform="translate(-339.43202902034443,144.3989173307641)"><circle class="outline" cx="0" cy="0" r="25" fill="#FFC454" stroke="#d7a013" stroke-width="2px"/><text text-anchor="middle" pointer-events="none" font-family="sans-serif" dy="1.5625" font-size="25" fill="#604A0E"/><text text-anchor="middle" pointer-events="none" y="5" font-size="10px" fill="#604A0E" font-family="sans-serif"> property</text></g><g class="node" transform="translate(-165.4359819823583,176.04781528197637)"><circle class="outline" cx="0" cy="0" r="25" fill="#57C7E3" stroke="#23b3d7" stroke-width="2px"/><text text-anchor="middle" pointer-events="none" font-family="sans-serif" dy="1.5625" font-size="25" fill="#FFFFFF"/><text text-anchor="middle" pointer-events="none" y="5" font-size="10px" fill="#FFFFFF" font-family="sans-serif"> read</text></g><g class="node" transform="translate(161.66700633847313,41.660632609606864)"><circle class="outline" cx="0" cy="0" r="25" fill="#57C7E3" stroke="#23b3d7" stroke-width="2px"/><text text-anchor="middle" pointer-events="none" font-family="sans-serif" dy="1.5625" font-size="25" fill="#FFFFFF"/><text text-anchor="middle" pointer-events="none" y="5" font-size="10px" fill="#FFFFFF" font-family="sans-serif"> write</text></g><g class="node" transform="translate(103.80859876140536,-118.69061656104238)"><circle class="outline" cx="0" cy="0" r="25" fill="#57C7E3" stroke="#23b3d7" stroke-width="2px"/><text text-anchor="middle" pointer-events="none" font-family="sans-serif" dy="1.5625" font-size="25" fill="#FFFFFF"/><text text-anchor="middle" pointer-events="none" y="5" font-size="10px" fill="#FFFFFF" font-family="sans-serif"> write</text></g><g class="node" transform="translate(372.97200344098803,222.07787650483385)"><circle class="outline" cx="0" cy="0" r="25" fill="#57C7E3" stroke="#23b3d7" stroke-width="2px"/><text text-anchor="middle" pointer-events="none" font-family="sans-serif" dy="1.5625" font-size="25" fill="#FFFFFF"/><text text-anchor="middle" pointer-events="none" y="5" font-size="10px" fill="#FFFFFF" font-family="sans-serif"> create_l…</text></g><g class="node" transform="translate(348.23564530561003,167.6342865211238)"><circle class="outline" cx="0" cy="0" r="25" fill="#57C7E3" stroke="#23b3d7" stroke-width="2px"/><text text-anchor="middle" pointer-events="none" font-family="sans-serif" dy="1.5625" font-size="25" fill="#FFFFFF"/><text text-anchor="middle" pointer-events="none" y="5" font-size="10px" fill="#FFFFFF" font-family="sans-serif"> create_p…</text></g><g class="node" transform="translate(467.215657355761,179.4650173079861)"><circle class="outline" cx="0" cy="0" r="25" fill="#57C7E3" stroke="#23b3d7" stroke-width="2px"/><text text-anchor="middle" pointer-events="none" font-family="sans-serif" dy="1.5625" font-size="25" fill="#FFFFFF"/><text text-anchor="middle" pointer-events="none" y="5" font-size="10px" fill="#FFFFFF" font-family="sans-serif"> start_dat…</text></g><g class="node" transform="translate(513.023141088288,27.964545605312022)"><circle class="outline" cx="0" cy="0" r="25" fill="#57C7E3" stroke="#23b3d7" stroke-width="2px"/><text text-anchor="middle" pointer-events="none" font-family="sans-serif" dy="1.5625" font-size="25" fill="#FFFFFF"/><text text-anchor="middle" pointer-events="none" y="5" font-size="10px" fill="#FFFFFF" font-family="sans-serif"> stop_dat…</text></g><g class="node" transform="translate(418.3304539003447,70.30541439762085)"><circle class="outline" cx="0" cy="0" r="25" fill="#57C7E3" stroke="#23b3d7" stroke-width="2px"/><text text-anchor="middle" pointer-events="none" font-family="sans-serif" dy="1.5625" font-size="25" fill="#FFFFFF"/><text text-anchor="middle" pointer-events="none" y="5" font-size="10px" fill="#FFFFFF" font-family="sans-serif"> create_c…</text></g><g class="node" transform="translate(442.68909600504054,124.80943884457962)"><circle class="outline" cx="0" cy="0" r="25" fill="#57C7E3" stroke="#23b3d7" stroke-width="2px"/><text text-anchor="middle" pointer-events="none" font-family="sans-serif" dy="1.5625" font-size="25" fill="#FFFFFF"/><text text-anchor="middle" pointer-events="none" y="5" font-size="10px" fill="#FFFFFF" font-family="sans-serif"> drop_co…</text></g><g class="node" transform="translate(407.8542579838834,173.3625934123061)"><circle class="outline" cx="0" cy="0" r="25" fill="#57C7E3" stroke="#23b3d7" stroke-width="2px"/><text text-anchor="middle" pointer-events="none" font-family="sans-serif" dy="1.5625" font-size="25" fill="#FFFFFF"/><text text-anchor="middle" pointer-events="none" y="5" font-size="10px" fill="#FFFFFF" font-family="sans-serif"> create_i…</text></g><g class="node" transform="translate(537.4394666375349,82.45784221275626)"><circle class="outline" cx="0" cy="0" r="25" fill="#57C7E3" stroke="#23b3d7" stroke-width="2px"/><text text-anchor="middle" pointer-events="none" font-family="sans-serif" dy="1.5625" font-size="25" fill="#FFFFFF"/><text text-anchor="middle" pointer-events="none" y="5" font-size="10px" fill="#FFFFFF" font-family="sans-serif"> drop_ind…</text></g><g class="node" transform="translate(383.3291127321065,118.77016858346458)"><circle class="outline" cx="0" cy="0" r="25" fill="#57C7E3" stroke="#23b3d7" stroke-width="2px"/><text text-anchor="middle" pointer-events="none" font-family="sans-serif" dy="1.5625" font-size="25" fill="#FFFFFF"/><text text-anchor="middle" pointer-events="none" y="5" font-size="10px" fill="#FFFFFF" font-family="sans-serif"> create_l…</text></g><g class="node" transform="translate(502.3078421099007,130.93234082557697)"><circle class="outline" cx="0" cy="0" r="25" fill="#57C7E3" stroke="#23b3d7" stroke-width="2px"/><text text-anchor="middle" pointer-events="none" font-family="sans-serif" dy="1.5625" font-size="25" fill="#FFFFFF"/><text text-anchor="middle" pointer-events="none" y="5" font-size="10px" fill="#FFFFFF" font-family="sans-serif"> create_r…</text></g><g class="node" transform="translate(477.9451532060943,76.43599302980681)"><circle class="outline" cx="0" cy="0" r="25" fill="#57C7E3" stroke="#23b3d7" stroke-width="2px"/><text text-anchor="middle" pointer-events="none" font-family="sans-serif" dy="1.5625" font-size="25" fill="#FFFFFF"/><text text-anchor="middle" pointer-events="none" y="5" font-size="10px" fill="#FFFFFF" font-family="sans-serif"> create_p…</text></g></g></svg>