<svg xmlns="http://www.w3.org/2000/svg" width="645.1177978515625" height="638.8304443359375" viewBox="-236.62501525878906 -211.56646728515625 645.1177978515625 638.8304443359375"><title>Neo4j Graph Visualization</title><desc>Created using Neo4j (http://www.neo4j.com/)</desc><g class="layer relationships"><g class="relationship" transform="translate(-34.84868178254456 372.53320295160154) rotate(295.30580973733385)"><path class="outline" fill="#A5ABB6" stroke="none" d="M 25 0.5 L 36.16723550421507 0.5 L 36.16723550421507 -0.5 L 25 -0.5 Z M 85.28832925421507 0.5 L 96.45556475843014 0.5 L 96.45556475843014 3.5 L 103.45556475843014 0 L 96.45556475843014 -3.5 L 96.45556475843014 -0.5 L 85.28832925421507 -0.5 Z"/><text text-anchor="middle" pointer-events="none" font-size="8px" fill="#000000" x="60.72778237921507" y="3" font-family="sans-serif">PRESENTS</text></g><g class="relationship" transform="translate(26.47133256580434 242.84374732594773) rotate(293.7721621310171)"><path class="outline" fill="#A5ABB6" stroke="none" d="M 40 0.5 L 57.19481562735862 0.5 L 57.19481562735862 -0.5 L 40 -0.5 Z M 102.75731562735862 0.5 L 119.95213125471724 0.5 L 119.95213125471724 3.5 L 126.95213125471724 0 L 119.95213125471724 -3.5 L 119.95213125471724 -0.5 L 102.75731562735862 -0.5 Z"/><text text-anchor="middle" pointer-events="none" font-size="8px" fill="#000000" x="79.97606562735862" y="3" font-family="sans-serif">IN_TRACK</text></g><g class="relationship" transform="translate(271.1808456530493 335.2553532424937) rotate(238.38498519536535)"><path class="outline" fill="#A5ABB6" stroke="none" d="M 25 0.5 L 38.670635363558816 0.5 L 38.670635363558816 -0.5 L 25 -0.5 Z M 87.79172911355882 0.5 L 101.46236447711763 0.5 L 101.46236447711763 3.5 L 108.46236447711763 0 L 101.46236447711763 -3.5 L 101.46236447711763 -0.5 L 87.79172911355882 -0.5 Z"/><text text-anchor="middle" pointer-events="none" font-size="8px" fill="#000000" x="63.231182238558816" y="3" transform="rotate(180 63.231182238558816 0)" font-family="sans-serif">PRESENTS</text></g><g class="relationship" transform="translate(193.3555247243003 208.8263490999563) rotate(224.839615124616)"><path class="outline" fill="#A5ABB6" stroke="none" d="M 40 0.5 L 55.70377186558345 0.5 L 55.70377186558345 -0.5 L 40 -0.5 Z M 101.26627186558345 0.5 L 116.9700437311669 0.5 L 116.9700437311669 3.5 L 123.9700437311669 0 L 116.9700437311669 -3.5 L 116.9700437311669 -0.5 L 101.26627186558345 -0.5 Z"/><text text-anchor="middle" pointer-events="none" font-size="8px" fill="#000000" x="78.48502186558345" y="3" transform="rotate(180 78.48502186558345 0)" font-family="sans-serif">IN_TRACK</text></g><g class="relationship" transform="translate(353.5727898861833 213.01228036168075) rotate(215.36739140716298)"><path class="outline" fill="#A5ABB6" stroke="none" d="M 25 0.5 L 36.46901446520042 0.5 L 36.46901446520042 -0.5 L 25 -0.5 Z M 85.59010821520042 0.5 L 97.05912268040083 0.5 L 97.05912268040083 3.5 L 104.05912268040083 0 L 97.05912268040083 -3.5 L 97.05912268040083 -0.5 L 85.59010821520042 -0.5 Z"/><text text-anchor="middle" pointer-events="none" font-size="8px" fill="#000000" x="61.02956134020042" y="3" transform="rotate(180 61.02956134020042 0)" font-family="sans-serif">PRESENTS</text></g><g class="relationship" transform="translate(236.09871968757588 129.62838708234628) rotate(189.88082690229976)"><path class="outline" fill="#A5ABB6" stroke="none" d="M 40 0.5 L 56.52344732118971 0.5 L 56.52344732118971 -0.5 L 40 -0.5 Z M 102.0859473211897 0.5 L 118.60939464237941 0.5 L 118.60939464237941 3.5 L 125.60939464237941 0 L 118.60939464237941 -3.5 L 118.60939464237941 -0.5 L 102.0859473211897 -0.5 Z"/><text text-anchor="middle" pointer-events="none" font-size="8px" fill="#000000" x="79.3046973211897" y="3" transform="rotate(180 79.3046973211897 0)" font-family="sans-serif">IN_TRACK</text></g><g class="relationship" transform="translate(379.49278279444377 122.142224461743) rotate(537.0114768920035)"><path class="outline" fill="#A5ABB6" stroke="none" d="M 25 0.5 L 36.23412556850121 0.5 L 36.23412556850121 -0.5 L 25 -0.5 Z M 85.35521931850121 0.5 L 96.58934488700243 0.5 L 96.58934488700243 3.5 L 103.58934488700243 0 L 96.58934488700243 -3.5 L 96.58934488700243 -0.5 L 85.35521931850121 -0.5 Z"/><text text-anchor="middle" pointer-events="none" font-size="8px" fill="#000000" x="60.79467244350121" y="3" transform="rotate(180 60.79467244350121 0)" font-family="sans-serif">PRESENTS</text></g><g class="relationship" transform="translate(352.70357376983503 -7.16383378626198) rotate(526.7617189174712)"><path class="outline" fill="#A5ABB6" stroke="none" d="M 25 0.5 L 35.755235420520165 0.5 L 35.755235420520165 -0.5 L 25 -0.5 Z M 84.87632917052017 0.5 L 95.63156459104033 0.5 L 95.63156459104033 3.5 L 102.63156459104033 0 L 95.63156459104033 -3.5 L 95.63156459104033 -0.5 L 84.87632917052017 -0.5 Z"/><text text-anchor="middle" pointer-events="none" font-size="8px" fill="#000000" x="60.315782295520165" y="3" transform="rotate(180 60.315782295520165 0)" font-family="sans-serif">PRESENTS</text></g><g class="relationship" transform="translate(213.86228364516924 25.498979537248495) rotate(508.1752473356729)"><path class="outline" fill="#A5ABB6" stroke="none" d="M 40 0.5 L 55.44738470697196 0.5 L 55.44738470697196 -0.5 L 40 -0.5 Z M 101.00988470697196 0.5 L 116.45726941394392 0.5 L 116.45726941394392 3.5 L 123.45726941394392 0 L 116.45726941394392 -3.5 L 116.45726941394392 -0.5 L 101.00988470697196 -0.5 Z"/><text text-anchor="middle" pointer-events="none" font-size="8px" fill="#000000" x="78.22863470697196" y="3" transform="rotate(180 78.22863470697196 0)" font-family="sans-serif">IN_TRACK</text></g><g class="relationship" transform="translate(304.2428107785409 -84.4033671392115) rotate(489.4328953828029)"><path class="outline" fill="#A5ABB6" stroke="none" d="M 25 0.5 L 35.58572057786594 0.5 L 35.58572057786594 -0.5 L 25 -0.5 Z M 84.70681432786594 0.5 L 95.29253490573188 0.5 L 95.29253490573188 3.5 L 102.29253490573188 0 L 95.29253490573188 -3.5 L 95.29253490573188 -0.5 L 84.70681432786594 -0.5 Z"/><text text-anchor="middle" pointer-events="none" font-size="8px" fill="#000000" x="60.14626745286594" y="3" transform="rotate(180 60.14626745286594 0)" font-family="sans-serif">PRESENTS</text></g><g class="relationship" transform="translate(202.07438152423026 -163.93701568225543) rotate(480.74491495911894)"><path class="outline" fill="#A5ABB6" stroke="none" d="M 25 0.5 L 36.34193851272536 0.5 L 36.34193851272536 -0.5 L 25 -0.5 Z M 85.46303226272536 0.5 L 96.80497077545073 0.5 L 96.80497077545073 3.5 L 103.80497077545073 0 L 96.80497077545073 -3.5 L 96.80497077545073 -0.5 L 85.46303226272536 -0.5 Z"/><text text-anchor="middle" pointer-events="none" font-size="8px" fill="#000000" x="60.90248538772536" y="3" transform="rotate(180 60.90248538772536 0)" font-family="sans-serif">PRESENTS</text></g><g class="relationship" transform="translate(128.5588629386447 -40.343576751134755) rotate(465.81897353505553)"><path class="outline" fill="#A5ABB6" stroke="none" d="M 40 0.5 L 56.11913216136388 0.5 L 56.11913216136388 -0.5 L 40 -0.5 Z M 101.68163216136388 0.5 L 117.80076432272776 0.5 L 117.80076432272776 3.5 L 124.80076432272776 0 L 117.80076432272776 -3.5 L 117.80076432272776 -0.5 L 101.68163216136388 -0.5 Z"/><text text-anchor="middle" pointer-events="none" font-size="8px" fill="#000000" x="78.90038216136388" y="3" transform="rotate(180 78.90038216136388 0)" font-family="sans-serif">IN_TRACK</text></g><g class="relationship" transform="translate(108.56560323081479 -182.56646632621232) rotate(441.99797096557126)"><path class="outline" fill="#A5ABB6" stroke="none" d="M 25 0.5 L 36.250108241127165 0.5 L 36.250108241127165 -0.5 L 25 -0.5 Z M 85.37120199112717 0.5 L 96.62131023225433 0.5 L 96.62131023225433 3.5 L 103.62131023225433 0 L 96.62131023225433 -3.5 L 96.62131023225433 -0.5 L 85.37120199112717 -0.5 Z"/><text text-anchor="middle" pointer-events="none" font-size="8px" fill="#000000" x="60.810655116127165" y="3" font-family="sans-serif">PRESENTS</text></g><g class="relationship" transform="translate(-37.31297913757547 -161.66396156076956) rotate(419.0913337401552)"><path class="outline" fill="#A5ABB6" stroke="none" d="M 25 0.5 L 38.467764648415525 0.5 L 38.467764648415525 -0.5 L 25 -0.5 Z M 87.58885839841552 0.5 L 101.05662304683105 0.5 L 101.05662304683105 3.5 L 108.05662304683105 0 L 101.05662304683105 -3.5 L 101.05662304683105 -0.5 L 87.58885839841552 -0.5 Z"/><text text-anchor="middle" pointer-events="none" font-size="8px" fill="#000000" x="63.028311523415525" y="3" font-family="sans-serif">PRESENTS</text></g><g class="relationship" transform="translate(38.73941930491942 -34.633271099072765) rotate(430.5118320611226)"><path class="outline" fill="#A5ABB6" stroke="none" d="M 40 0.5 L 54.633220496469576 0.5 L 54.633220496469576 -0.5 L 40 -0.5 Z M 100.19572049646958 0.5 L 114.82894099293915 0.5 L 114.82894099293915 3.5 L 121.82894099293915 0 L 114.82894099293915 -3.5 L 114.82894099293915 -0.5 L 100.19572049646958 -0.5 Z"/><text text-anchor="middle" pointer-events="none" font-size="8px" fill="#000000" x="77.41447049646958" y="3" font-family="sans-serif">IN_TRACK</text></g><g class="relationship" transform="translate(-207.62502053823536 106.41147972107427) rotate(357.4263996856382)"><path class="outline" fill="#A5ABB6" stroke="none" d="M 25 0.5 L 35.95354565801459 0.5 L 35.95354565801459 -0.5 L 25 -0.5 Z M 85.07463940801459 0.5 L 96.02818506602918 0.5 L 96.02818506602918 3.5 L 103.02818506602918 0 L 96.02818506602918 -3.5 L 96.02818506602918 -0.5 L 85.07463940801459 -0.5 Z"/><text text-anchor="middle" pointer-events="none" font-size="8px" fill="#000000" x="60.51409253301459" y="3" font-family="sans-serif">PRESENTS</text></g><g class="relationship" transform="translate(-64.74109866785544 99.98912857671463) rotate(361.4257715680527)"><path class="outline" fill="#A5ABB6" stroke="none" d="M 40 0.5 L 57.47458004599264 0.5 L 57.47458004599264 -0.5 L 40 -0.5 Z M 103.03708004599264 0.5 L 120.51166009198528 0.5 L 120.51166009198528 3.5 L 127.51166009198528 0 L 120.51166009198528 -3.5 L 120.51166009198528 -0.5 L 103.03708004599264 -0.5 Z"/><text text-anchor="middle" pointer-events="none" font-size="8px" fill="#000000" x="80.25583004599264" y="3" font-family="sans-serif">IN_TRACK</text></g><g class="relationship" transform="translate(-162.86009533062813 -55.55653532492637) rotate(389.04259286561535)"><path class="outline" fill="#A5ABB6" stroke="none" d="M 25 0.5 L 36.634499675741296 0.5 L 36.634499675741296 -0.5 L 25 -0.5 Z M 85.7555934257413 0.5 L 97.39009310148259 0.5 L 97.39009310148259 3.5 L 104.39009310148259 0 L 97.39009310148259 -3.5 L 97.39009310148259 -0.5 L 85.7555934257413 -0.5 Z"/><text text-anchor="middle" pointer-events="none" font-size="8px" fill="#000000" x="61.195046550741296" y="3" font-family="sans-serif">PRESENTS</text></g><g class="relationship" transform="translate(-36.625747548301916 14.539031052880432) rotate(395.6668593404518)"><path class="outline" fill="#A5ABB6" stroke="none" d="M 40 0.5 L 57.748716352864534 0.5 L 57.748716352864534 -0.5 L 40 -0.5 Z M 103.31121635286453 0.5 L 121.05993270572907 0.5 L 121.05993270572907 3.5 L 128.05993270572907 0 L 121.05993270572907 -3.5 L 121.05993270572907 -0.5 L 103.31121635286453 -0.5 Z"/><text text-anchor="middle" pointer-events="none" font-size="8px" fill="#000000" x="80.52996635286453" y="3" font-family="sans-serif">IN_TRACK</text></g><g class="relationship" transform="translate(-161.37431224139192 270.0211985449454) rotate(324.81415326986496)"><path class="outline" fill="#A5ABB6" stroke="none" d="M 25 0.5 L 35.94554726657981 0.5 L 35.94554726657981 -0.5 L 25 -0.5 Z M 85.06664101657981 0.5 L 96.01218828315962 0.5 L 96.01218828315962 3.5 L 103.01218828315962 0 L 96.01218828315962 -3.5 L 96.01218828315962 -0.5 L 85.06664101657981 -0.5 Z"/><text text-anchor="middle" pointer-events="none" font-size="8px" fill="#000000" x="60.50609414157981" y="3" font-family="sans-serif">PRESENTS</text></g><g class="relationship" transform="translate(-44.49227210621106 187.61322143486296) rotate(327.62387407791937)"><path class="outline" fill="#A5ABB6" stroke="none" d="M 40 0.5 L 59.49442358862217 0.5 L 59.49442358862217 -0.5 L 40 -0.5 Z M 105.05692358862217 0.5 L 124.55134717724434 0.5 L 124.55134717724434 3.5 L 131.55134717724434 0 L 124.55134717724434 -3.5 L 124.55134717724434 -0.5 L 105.05692358862217 -0.5 Z"/><text text-anchor="middle" pointer-events="none" font-size="8px" fill="#000000" x="82.27567358862217" y="3" font-family="sans-serif">IN_TRACK</text></g><g class="relationship" transform="translate(126.29468252667237 398.26401244883914) rotate(265.7889561781818)"><path class="outline" fill="#A5ABB6" stroke="none" d="M 25 0.5 L 36.63225176574227 0.5 L 36.63225176574227 -0.5 L 25 -0.5 Z M 85.75334551574227 0.5 L 97.38559728148454 0.5 L 97.38559728148454 3.5 L 104.38559728148454 0 L 97.38559728148454 -3.5 L 97.38559728148454 -0.5 L 85.75334551574227 -0.5 Z"/><text text-anchor="middle" pointer-events="none" font-size="8px" fill="#000000" x="61.19279864074227" y="3" transform="rotate(180 61.19279864074227 0)" font-family="sans-serif">PRESENTS</text></g><g class="relationship" transform="translate(115.69238615069155 254.26820690615364) rotate(259.4711347348592)"><path class="outline" fill="#A5ABB6" stroke="none" d="M 40 0.5 L 57.74945326207964 0.5 L 57.74945326207964 -0.5 L 40 -0.5 Z M 103.31195326207964 0.5 L 121.06140652415928 0.5 L 121.06140652415928 3.5 L 128.06140652415928 0 L 121.06140652415928 -3.5 L 121.06140652415928 -0.5 L 103.31195326207964 -0.5 Z"/><text text-anchor="middle" pointer-events="none" font-size="8px" fill="#000000" x="80.53070326207964" y="3" transform="rotate(180 80.53070326207964 0)" font-family="sans-serif">IN_TRACK</text></g></g><g class="layer nodes"><g class="node" transform="translate(-34.84868178254456,372.53320295160154)"><circle class="outline" cx="0" cy="0" r="25" fill="#4C8EDA" stroke="#2870c2" stroke-width="2px"/><text text-anchor="middle" pointer-events="none" font-family="sans-serif" dy="1.5625" font-size="25" fill="#FFFFFF"/><text text-anchor="middle" pointer-events="none" y="5" font-size="10px" fill="#FFFFFF" font-family="sans-serif"> Ben Steer</text></g><g class="node" transform="translate(26.47133256580434,242.84374732594773)"><circle class="outline" cx="0" cy="0" r="40" fill="#D9C8AE" stroke="#c0a378" stroke-width="2px"/><text text-anchor="middle" pointer-events="none" font-family="sans-serif" dy="2.5" font-size="40" fill="#604A0E"/><text text-anchor="middle" pointer-events="none" y="5" font-size="10px" fill="#604A0E" font-family="sans-serif"> graph_raphtory</text></g><g class="node" transform="translate(87.7233436753721,103.78389931839307)"><circle class="outline" cx="0" cy="0" r="25" fill="#ECB5C9" stroke="#da7298" stroke-width="2px"/><text text-anchor="middle" pointer-events="none" font-family="sans-serif" dy="1.5625" font-size="25" fill="#604A0E"/><text text-anchor="middle" pointer-events="none" font-family="sans-serif" dy="1.5625" font-size="25" fill="#604A0E"/><text text-anchor="middle" pointer-events="none" font-family="sans-serif" dy="1.5625" font-size="25" fill="#604A0E"/><text text-anchor="middle" pointer-events="none" y="-5" font-size="10px" fill="#604A0E" font-family="sans-serif"> Graph</text><text text-anchor="middle" pointer-events="none" y="5" font-size="10px" fill="#604A0E" font-family="sans-serif"> Systems</text><text text-anchor="middle" pointer-events="none" y="15" font-size="10px" fill="#604A0E" font-family="sans-serif"> and Al…</text></g><g class="node" transform="translate(271.1808456530493,335.2553532424937)"><circle class="outline" cx="0" cy="0" r="25" fill="#4C8EDA" stroke="#2870c2" stroke-width="2px"/><text text-anchor="middle" pointer-events="none" font-family="sans-serif" dy="1.5625" font-size="25" fill="#FFFFFF"/><text text-anchor="middle" pointer-events="none" y="5" font-size="25" fill="#FFFFFF" dy="1.5625" font-family="sans-serif"/><text text-anchor="middle" pointer-events="none" y="0" font-size="10px" fill="#FFFFFF" font-family="sans-serif"> Vincent</text><text text-anchor="middle" pointer-events="none" y="10" font-size="10px" fill="#FFFFFF" font-family="sans-serif"> Cave</text></g><g class="node" transform="translate(193.3555247243003,208.8263490999563)"><circle class="outline" cx="0" cy="0" r="40" fill="#D9C8AE" stroke="#c0a378" stroke-width="2px"/><text text-anchor="middle" pointer-events="none" font-family="sans-serif" dy="2.5" font-size="40" fill="#604A0E"/><text text-anchor="middle" pointer-events="none" y="5" font-size="10px" fill="#604A0E" font-family="sans-serif"> graph_python_…</text></g><g class="node" transform="translate(353.5727898861833,213.01228036168075)"><circle class="outline" cx="0" cy="0" r="25" fill="#4C8EDA" stroke="#2870c2" stroke-width="2px"/><text text-anchor="middle" pointer-events="none" font-family="sans-serif" dy="1.5625" font-size="25" fill="#FFFFFF"/><text text-anchor="middle" pointer-events="none" y="5" font-size="10px" fill="#FFFFFF" font-family="sans-serif"> Christop…</text></g><g class="node" transform="translate(236.09871968757588,129.62838708234628)"><circle class="outline" cx="0" cy="0" r="40" fill="#D9C8AE" stroke="#c0a378" stroke-width="2px"/><text text-anchor="middle" pointer-events="none" font-family="sans-serif" dy="2.5" font-size="40" fill="#604A0E"/><text text-anchor="middle" pointer-events="none" y="5" font-size="10px" fill="#604A0E" font-family="sans-serif"> graph_tempora…</text></g><g class="node" transform="translate(379.49278279444377,122.142224461743)"><circle class="outline" cx="0" cy="0" r="25" fill="#4C8EDA" stroke="#2870c2" stroke-width="2px"/><text text-anchor="middle" pointer-events="none" font-family="sans-serif" dy="1.5625" font-size="25" fill="#FFFFFF"/><text text-anchor="middle" pointer-events="none" y="5" font-size="25" fill="#FFFFFF" dy="1.5625" font-family="sans-serif"/><text text-anchor="middle" pointer-events="none" y="0" font-size="10px" fill="#FFFFFF" font-family="sans-serif"> Kevin</text><text text-anchor="middle" pointer-events="none" y="10" font-size="10px" fill="#FFFFFF" font-family="sans-serif"> Gomez</text></g><g class="node" transform="translate(352.70357376983503,-7.16383378626198)"><circle class="outline" cx="0" cy="0" r="25" fill="#4C8EDA" stroke="#2870c2" stroke-width="2px"/><text text-anchor="middle" pointer-events="none" font-family="sans-serif" dy="1.5625" font-size="25" fill="#FFFFFF"/><text text-anchor="middle" pointer-events="none" y="5" font-size="25" fill="#FFFFFF" dy="1.5625" font-family="sans-serif"/><text text-anchor="middle" pointer-events="none" y="0" font-size="10px" fill="#FFFFFF" font-family="sans-serif"> Aninda</text><text text-anchor="middle" pointer-events="none" y="10" font-size="10px" fill="#FFFFFF" font-family="sans-serif"> Manocha</text></g><g class="node" transform="translate(213.86228364516924,25.498979537248495)"><circle class="outline" cx="0" cy="0" r="40" fill="#D9C8AE" stroke="#c0a378" stroke-width="2px"/><text text-anchor="middle" pointer-events="none" font-family="sans-serif" dy="2.5" font-size="40" fill="#604A0E"/><text text-anchor="middle" pointer-events="none" y="5" font-size="10px" fill="#604A0E" font-family="sans-serif"> graph_hardwar…</text></g><g class="node" transform="translate(304.2428107785409,-84.4033671392115)"><circle class="outline" cx="0" cy="0" r="25" fill="#4C8EDA" stroke="#2870c2" stroke-width="2px"/><text text-anchor="middle" pointer-events="none" font-family="sans-serif" dy="1.5625" font-size="25" fill="#FFFFFF"/><text text-anchor="middle" pointer-events="none" y="5" font-size="25" fill="#FFFFFF" dy="1.5625" font-family="sans-serif"/><text text-anchor="middle" pointer-events="none" y="0" font-size="10px" fill="#FFFFFF" font-family="sans-serif"> Margaret</text><text text-anchor="middle" pointer-events="none" y="10" font-size="10px" fill="#FFFFFF" font-family="sans-serif"> Marton…</text></g><g class="node" transform="translate(202.07438152423026,-163.93701568225543)"><circle class="outline" cx="0" cy="0" r="25" fill="#4C8EDA" stroke="#2870c2" stroke-width="2px"/><text text-anchor="middle" pointer-events="none" font-family="sans-serif" dy="1.5625" font-size="25" fill="#FFFFFF"/><text text-anchor="middle" pointer-events="none" y="5" font-size="25" fill="#FFFFFF" dy="1.5625" font-family="sans-serif"/><text text-anchor="middle" pointer-events="none" y="0" font-size="10px" fill="#FFFFFF" font-family="sans-serif"> Tobias</text><text text-anchor="middle" pointer-events="none" y="10" font-size="10px" fill="#FFFFFF" font-family="sans-serif"> Johans…</text></g><g class="node" transform="translate(128.5588629386447,-40.343576751134755)"><circle class="outline" cx="0" cy="0" r="40" fill="#D9C8AE" stroke="#c0a378" stroke-width="2px"/><text text-anchor="middle" pointer-events="none" font-family="sans-serif" dy="2.5" font-size="40" fill="#604A0E"/><text text-anchor="middle" pointer-events="none" y="5" font-size="10px" fill="#604A0E" font-family="sans-serif"> graph_cypher_…</text></g><g class="node" transform="translate(108.56560323081479,-182.56646632621232)"><circle class="outline" cx="0" cy="0" r="25" fill="#4C8EDA" stroke="#2870c2" stroke-width="2px"/><text text-anchor="middle" pointer-events="none" font-family="sans-serif" dy="1.5625" font-size="25" fill="#FFFFFF"/><text text-anchor="middle" pointer-events="none" y="5" font-size="25" fill="#FFFFFF" dy="1.5625" font-family="sans-serif"/><text text-anchor="middle" pointer-events="none" y="0" font-size="10px" fill="#FFFFFF" font-family="sans-serif"> Petr</text><text text-anchor="middle" pointer-events="none" y="10" font-size="10px" fill="#FFFFFF" font-family="sans-serif"> Janouch</text></g><g class="node" transform="translate(-37.31297913757547,-161.66396156076956)"><circle class="outline" cx="0" cy="0" r="25" fill="#4C8EDA" stroke="#2870c2" stroke-width="2px"/><text text-anchor="middle" pointer-events="none" font-family="sans-serif" dy="1.5625" font-size="25" fill="#FFFFFF"/><text text-anchor="middle" pointer-events="none" y="5" font-size="10px" fill="#FFFFFF" font-family="sans-serif"> Muham…</text></g><g class="node" transform="translate(38.73941930491942,-34.633271099072765)"><circle class="outline" cx="0" cy="0" r="40" fill="#D9C8AE" stroke="#c0a378" stroke-width="2px"/><text text-anchor="middle" pointer-events="none" font-family="sans-serif" dy="2.5" font-size="40" fill="#604A0E"/><text text-anchor="middle" pointer-events="none" y="5" font-size="10px" fill="#604A0E" font-family="sans-serif"> graph_gunrock</text></g><g class="node" transform="translate(-207.62502053823536,106.41147972107427)"><circle class="outline" cx="0" cy="0" r="25" fill="#4C8EDA" stroke="#2870c2" stroke-width="2px"/><text text-anchor="middle" pointer-events="none" font-family="sans-serif" dy="1.5625" font-size="25" fill="#FFFFFF"/><text text-anchor="middle" pointer-events="none" y="5" font-size="25" fill="#FFFFFF" dy="1.5625" font-family="sans-serif"/><text text-anchor="middle" pointer-events="none" y="0" font-size="10px" fill="#FFFFFF" font-family="sans-serif"> Sylvain</text><text text-anchor="middle" pointer-events="none" y="10" font-size="10px" fill="#FFFFFF" font-family="sans-serif"> Baubeau</text></g><g class="node" transform="translate(-64.74109866785544,99.98912857671463)"><circle class="outline" cx="0" cy="0" r="40" fill="#D9C8AE" stroke="#c0a378" stroke-width="2px"/><text text-anchor="middle" pointer-events="none" font-family="sans-serif" dy="2.5" font-size="40" fill="#604A0E"/><text text-anchor="middle" pointer-events="none" y="5" font-size="10px" fill="#604A0E" font-family="sans-serif"> graph_graffiti</text></g><g class="node" transform="translate(-162.86009533062813,-55.55653532492637)"><circle class="outline" cx="0" cy="0" r="25" fill="#4C8EDA" stroke="#2870c2" stroke-width="2px"/><text text-anchor="middle" pointer-events="none" font-family="sans-serif" dy="1.5625" font-size="25" fill="#FFFFFF"/><text text-anchor="middle" pointer-events="none" y="5" font-size="25" fill="#FFFFFF" dy="1.5625" font-family="sans-serif"/><text text-anchor="middle" pointer-events="none" y="0" font-size="10px" fill="#FFFFFF" font-family="sans-serif"> Stijn</text><text text-anchor="middle" pointer-events="none" y="10" font-size="10px" fill="#FFFFFF" font-family="sans-serif"> Eyerman</text></g><g class="node" transform="translate(-36.625747548301916,14.539031052880432)"><circle class="outline" cx="0" cy="0" r="40" fill="#D9C8AE" stroke="#c0a378" stroke-width="2px"/><text text-anchor="middle" pointer-events="none" font-family="sans-serif" dy="2.5" font-size="40" fill="#604A0E"/><text text-anchor="middle" pointer-events="none" y="5" font-size="10px" fill="#604A0E" font-family="sans-serif"> graph_puma</text></g><g class="node" transform="translate(-161.37431224139192,270.0211985449454)"><circle class="outline" cx="0" cy="0" r="25" fill="#4C8EDA" stroke="#2870c2" stroke-width="2px"/><text text-anchor="middle" pointer-events="none" font-family="sans-serif" dy="1.5625" font-size="25" fill="#FFFFFF"/><text text-anchor="middle" pointer-events="none" y="5" font-size="25" fill="#FFFFFF" dy="1.5625" font-family="sans-serif"/><text text-anchor="middle" pointer-events="none" y="0" font-size="10px" fill="#FFFFFF" font-family="sans-serif"> Bob van</text><text text-anchor="middle" pointer-events="none" y="10" font-size="10px" fill="#FFFFFF" font-family="sans-serif"> Luijt</text></g><g class="node" transform="translate(-44.49227210621106,187.61322143486296)"><circle class="outline" cx="0" cy="0" r="40" fill="#D9C8AE" stroke="#c0a378" stroke-width="2px"/><text text-anchor="middle" pointer-events="none" font-family="sans-serif" dy="2.5" font-size="40" fill="#604A0E"/><text text-anchor="middle" pointer-events="none" y="5" font-size="10px" fill="#604A0E" font-family="sans-serif"> graph_weaviate</text></g><g class="node" transform="translate(126.29468252667237,398.26401244883914)"><circle class="outline" cx="0" cy="0" r="25" fill="#4C8EDA" stroke="#2870c2" stroke-width="2px"/><text text-anchor="middle" pointer-events="none" font-family="sans-serif" dy="1.5625" font-size="25" fill="#FFFFFF"/><text text-anchor="middle" pointer-events="none" y="5" font-size="10px" fill="#FFFFFF" font-family="sans-serif"> Paul Horn</text></g><g class="node" transform="translate(115.69238615069155,254.26820690615364)"><circle class="outline" cx="0" cy="0" r="40" fill="#D9C8AE" stroke="#c0a378" stroke-width="2px"/><text text-anchor="middle" pointer-events="none" font-family="sans-serif" dy="2.5" font-size="40" fill="#604A0E"/><text text-anchor="middle" pointer-events="none" y="5" font-size="10px" fill="#604A0E" font-family="sans-serif"> graph_neo4j_al…</text></g></g></svg>